<?xml version="1.0" encoding="UTF-8" standalone="no"?>
<!-- Created with Inkscape (http://www.inkscape.org/) -->

<svg
   xmlns:dc="http://purl.org/dc/elements/1.1/"
   xmlns:cc="http://creativecommons.org/ns#"
   xmlns:rdf="http://www.w3.org/1999/02/22-rdf-syntax-ns#"
   xmlns:svg="http://www.w3.org/2000/svg"
   xmlns="http://www.w3.org/2000/svg"
   xmlns:sodipodi="http://sodipodi.sourceforge.net/DTD/sodipodi-0.dtd"
   xmlns:inkscape="http://www.inkscape.org/namespaces/inkscape"
   id="svg2"
   version="1.1"
   inkscape:version="0.91 r13725"
   xml:space="preserve"
   width="1000"
   height="1000"
   viewBox="0 0 1000 1000"
   sodipodi:docname="llamar.svg"><metadata
     id="metadata8"><rdf:RDF><cc:Work
         rdf:about=""><dc:format>image/svg+xml</dc:format><dc:type
           rdf:resource="http://purl.org/dc/dcmitype/StillImage" /><dc:title></dc:title></cc:Work></rdf:RDF></metadata><defs
     id="defs6"><clipPath
       clipPathUnits="userSpaceOnUse"
       id="clipPath16"><path
         d="M 0,800 800,800 800,0 0,0 0,800 Z"
         id="path18"
         inkscape:connector-curvature="0" /></clipPath><clipPath
       clipPathUnits="userSpaceOnUse"
       id="clipPath24"><path
         d="M -4.88281e-4,800 800,800 800,0 -4.88281e-4,0 l 0,800 z"
         id="path26"
         inkscape:connector-curvature="0" /></clipPath><clipPath
       clipPathUnits="userSpaceOnUse"
       id="clipPath28"><path
         d="M 800,0 0,0 0,800 800,800 800,0 Z"
         id="path30"
         inkscape:connector-curvature="0" /></clipPath><radialGradient
       fx="0"
       fy="0"
       cx="0"
       cy="0"
       r="1"
       gradientUnits="userSpaceOnUse"
       gradientTransform="matrix(563.45984,0,0,-563.45984,400,400)"
       spreadMethod="pad"
       id="radialGradient36"><stop
         style="stop-opacity:0;stop-color:#ffffff"
         offset="0"
         id="stop38" /><stop
         style="stop-opacity:0;stop-color:#ffffff"
         offset="0.4888388"
         id="stop40" /><stop
         style="stop-opacity:0.29999237;stop-color:#ffffff"
         offset="1"
         id="stop42" /></radialGradient><mask
       maskUnits="userSpaceOnUse"
       x="0"
       y="0"
       width="1"
       height="1"
       id="mask44"><g
         id="g46"><g
           id="g48"><g
             id="g50"><g
               id="g52"><path
                 d="m -32768,32767 65535,0 0,-65535 -65535,0 0,65535 z"
                 style="fill:url(#radialGradient36);stroke:none"
                 id="path54"
                 inkscape:connector-curvature="0" /></g></g></g></g></mask><radialGradient
       fx="0"
       fy="0"
       cx="0"
       cy="0"
       r="1"
       gradientUnits="userSpaceOnUse"
       gradientTransform="matrix(563.45984,0,0,-563.45984,400,400)"
       spreadMethod="pad"
       id="radialGradient56"><stop
         style="stop-opacity:1;stop-color:#ffffff"
         offset="0"
         id="stop58" /><stop
         style="stop-opacity:1;stop-color:#ffffff"
         offset="0.4888388"
         id="stop60" /><stop
         style="stop-opacity:1;stop-color:#1d1e1c"
         offset="1"
         id="stop62" /></radialGradient><clipPath
       clipPathUnits="userSpaceOnUse"
       id="clipPath210"><path
         d="M 0,0 800,0 800,800 0,800 0,0 Z"
         id="path212"
         inkscape:connector-curvature="0" /></clipPath><clipPath
       clipPathUnits="userSpaceOnUse"
       id="clipPath218"><path
         d="m 151.621,84.9258 330.947,0 0,-44.9981 -330.947,0 0,44.9981 z"
         id="path220"
         inkscape:connector-curvature="0" /></clipPath></defs><sodipodi:namedview
     pagecolor="#ffffff"
     bordercolor="#666666"
     borderopacity="1"
     objecttolerance="10"
     gridtolerance="10"
     guidetolerance="10"
     inkscape:pageopacity="0"
     inkscape:pageshadow="2"
     inkscape:window-width="1920"
     inkscape:window-height="1017"
     id="namedview4"
     showgrid="false"
     inkscape:zoom="0.56803994"
     inkscape:cx="500"
     inkscape:cy="500"
     inkscape:window-x="-8"
     inkscape:window-y="-8"
     inkscape:window-maximized="1"
     inkscape:current-layer="g10" /><g
     id="g10"
     inkscape:groupmode="layer"
     inkscape:label="10"
     transform="matrix(1.25,0,0,-1.25,0,1000)"><g
       clip-path="url(#clipPath16)"
       id="g14"><g
         id="g20"><g
           id="g22" /><g
           id="g64"><g
             id="g66"
             clip-path="url(#clipPath24)"><g
               id="g68"><g
                 id="g70"
                 clip-path="url(#clipPath28)"><g
                   id="g72"><g
                     id="g74" /><g
                     id="g76"
                     mask="url(#mask44)"><g
                       id="g78"><path
                         inkscape:connector-curvature="0"
                         id="path80"
                         style="fill:url(#radialGradient56);stroke:none"
                         d="M 800,0 0,0 0,800 800,800 800,0 Z" /></g></g></g></g></g></g></g></g><g
         transform="translate(283.3618,773.251)"
         id="g82"><path
           inkscape:connector-curvature="0"
           id="path84"
           style="fill:#4b4b4b;fill-opacity:1;fill-rule:nonzero;stroke:none"
           d="m 0,0 c 0,-0.703 0.109,-1.301 0.328,-1.795 0.218,-0.494 0.517,-0.865 0.897,-1.115 0.38,-0.25 0.795,-0.377 1.244,-0.377 0.456,0 0.872,0.119 1.25,0.357 0.376,0.237 0.677,0.602 0.902,1.092 0.225,0.49 0.337,1.106 0.337,1.838 0,0.691 -0.112,1.285 -0.337,1.783 C 4.396,2.279 4.092,2.658 3.709,2.922 3.326,3.184 2.906,3.314 2.451,3.314 1.976,3.314 1.552,3.18 1.178,2.912 0.804,2.643 0.515,2.258 0.309,1.754 0.103,1.25 0,0.666 0,0 m 5.101,-3.809 0,0.258 C 4.752,-3.949 4.409,-4.275 4.07,-4.523 3.731,-4.775 3.364,-4.965 2.968,-5.094 2.572,-5.227 2.141,-5.289 1.672,-5.289 c -0.621,0 -1.196,0.131 -1.725,0.393 -0.528,0.263 -0.986,0.638 -1.371,1.126 -0.388,0.487 -0.68,1.059 -0.879,1.719 -0.199,0.658 -0.3,1.371 -0.3,2.137 0,1.621 0.396,2.885 1.188,3.791 C -0.624,4.781 0.418,5.234 1.71,5.234 2.457,5.234 3.087,5.105 3.6,4.85 4.113,4.594 4.613,4.197 5.101,3.668 l 0,3.826 c 0,0.533 0.105,0.934 0.318,1.207 C 5.63,8.973 5.933,9.109 6.326,9.109 6.718,9.109 7.02,8.984 7.232,8.734 7.445,8.482 7.551,8.115 7.551,7.627 l 0,-11.436 c 0,-0.494 -0.114,-0.863 -0.342,-1.111 -0.228,-0.246 -0.522,-0.369 -0.883,-0.369 -0.355,0 -0.648,0.127 -0.879,0.383 -0.231,0.258 -0.346,0.623 -0.346,1.097" /></g><g
         transform="translate(294.8247,774.0674)"
         id="g86"><path
           inkscape:connector-curvature="0"
           id="path88"
           style="fill:#4b4b4b;fill-opacity:1;fill-rule:nonzero;stroke:none"
           d="M 0,0 4.702,0 C 4.639,0.887 4.398,1.551 3.984,1.99 3.569,2.432 3.024,2.65 2.346,2.65 1.7,2.65 1.169,2.428 0.755,1.982 0.34,1.535 0.089,0.875 0,0 m 5.071,-1.473 -5.071,0 c 0.006,-0.588 0.125,-1.107 0.356,-1.556 0.231,-0.45 0.539,-0.789 0.921,-1.016 0.384,-0.228 0.806,-0.342 1.268,-0.342 0.31,0 0.594,0.035 0.851,0.108 0.256,0.074 0.504,0.187 0.746,0.343 0.24,0.155 0.462,0.321 0.664,0.498 0.202,0.178 0.465,0.42 0.788,0.723 0.133,0.113 0.323,0.172 0.571,0.172 0.266,0 0.481,-0.074 0.645,-0.221 0.164,-0.146 0.248,-0.349 0.248,-0.617 0,-0.234 -0.093,-0.506 -0.276,-0.82 C 6.597,-4.516 6.32,-4.816 5.951,-5.104 5.579,-5.393 5.115,-5.631 4.554,-5.82 3.994,-6.012 3.35,-6.105 2.621,-6.105 c -1.664,0 -2.96,0.474 -3.884,1.423 -0.925,0.95 -1.386,2.239 -1.386,3.866 0,0.767 0.113,1.478 0.341,2.132 0.228,0.657 0.561,1.217 0.997,1.686 0.437,0.469 0.975,0.828 1.615,1.078 0.639,0.25 1.349,0.375 2.128,0.375 1.012,0 1.881,-0.213 2.606,-0.641 C 5.764,3.387 6.307,2.834 6.667,2.158 7.027,1.48 7.209,0.789 7.209,0.088 7.209,-0.566 7.022,-0.988 6.649,-1.182 6.276,-1.375 5.75,-1.473 5.071,-1.473" /></g><g
         transform="translate(311.7109,771.3525)"
         id="g90"><path
           inkscape:connector-curvature="0"
           id="path92"
           style="fill:#4b4b4b;fill-opacity:1;fill-rule:nonzero;stroke:none"
           d="m 0,0 c 0,-0.715 -0.173,-1.328 -0.522,-1.838 -0.348,-0.51 -0.863,-0.896 -1.544,-1.16 -0.68,-0.262 -1.508,-0.393 -2.483,-0.393 -0.931,0 -1.729,0.143 -2.394,0.428 -0.664,0.283 -1.156,0.641 -1.472,1.067 -0.316,0.429 -0.475,0.857 -0.475,1.289 0,0.285 0.101,0.527 0.305,0.73 0.202,0.201 0.459,0.303 0.769,0.303 0.272,0 0.48,-0.067 0.626,-0.199 0.146,-0.133 0.286,-0.321 0.418,-0.559 0.266,-0.465 0.585,-0.807 0.955,-1.037 0.37,-0.227 0.875,-0.342 1.515,-0.342 0.519,0 0.945,0.117 1.278,0.348 0.332,0.232 0.498,0.496 0.498,0.793 0,0.457 -0.172,0.787 -0.518,0.996 -0.345,0.209 -0.914,0.41 -1.705,0.599 -0.893,0.221 -1.619,0.455 -2.18,0.7 -0.56,0.242 -1.008,0.564 -1.343,0.963 -0.336,0.398 -0.504,0.89 -0.504,1.472 0,0.518 0.155,1.01 0.465,1.473 0.311,0.461 0.769,0.83 1.374,1.105 0.604,0.276 1.333,0.414 2.188,0.414 0.671,0 1.275,-0.07 1.809,-0.211 0.536,-0.136 0.983,-0.326 1.34,-0.56 0.358,-0.233 0.63,-0.492 0.816,-0.777 0.187,-0.286 0.28,-0.563 0.28,-0.836 0,-0.297 -0.1,-0.541 -0.298,-0.733 C -1.001,3.848 -1.285,3.75 -1.653,3.75 c -0.266,0 -0.492,0.076 -0.679,0.23 -0.186,0.151 -0.4,0.379 -0.641,0.682 C -3.169,4.916 -3.399,5.119 -3.666,5.271 -3.932,5.424 -4.292,5.498 -4.749,5.498 -5.218,5.498 -5.606,5.4 -5.917,5.199 -6.227,5 -6.382,4.752 -6.382,4.455 c 0,-0.273 0.113,-0.496 0.341,-0.67 0.229,-0.176 0.535,-0.32 0.922,-0.433 0.387,-0.114 0.917,-0.252 1.596,-0.416 0.803,-0.198 1.46,-0.432 1.97,-0.704 0.51,-0.271 0.896,-0.593 1.16,-0.964 C -0.131,0.896 0,0.475 0,0" /></g><g
         transform="translate(315.6426,777.0322)"
         id="g94"><path
           inkscape:connector-curvature="0"
           id="path96"
           style="fill:#4b4b4b;fill-opacity:1;fill-rule:nonzero;stroke:none"
           d="m 0,0 0,-7.494 c 0,-0.52 -0.124,-0.912 -0.371,-1.178 -0.247,-0.266 -0.56,-0.398 -0.94,-0.398 -0.38,0 -0.689,0.134 -0.926,0.408 -0.238,0.271 -0.356,0.662 -0.356,1.168 l 0,7.418 c 0,0.512 0.118,0.898 0.356,1.158 0.237,0.26 0.546,0.391 0.926,0.391 0.38,0 0.693,-0.131 0.94,-0.391 C -0.124,0.822 0,0.461 0,0 m -1.283,2.678 c -0.361,0 -0.669,0.111 -0.925,0.332 -0.257,0.22 -0.385,0.535 -0.385,0.941 0,0.367 0.131,0.668 0.394,0.906 0.262,0.239 0.569,0.358 0.916,0.358 0.336,0 0.634,-0.108 0.893,-0.324 C -0.13,4.676 0,4.363 0,3.951 0,3.551 -0.127,3.24 -0.381,3.016 -0.634,2.791 -0.935,2.678 -1.283,2.678" /></g><g
         transform="translate(319.4883,773.3174)"
         id="g98"><path
           inkscape:connector-curvature="0"
           id="path100"
           style="fill:#4b4b4b;fill-opacity:1;fill-rule:nonzero;stroke:none"
           d="m 0,0 c 0,-1.051 0.229,-1.846 0.688,-2.383 0.459,-0.539 1.053,-0.808 1.781,-0.808 0.43,0 0.837,0.117 1.22,0.347 0.384,0.231 0.695,0.58 0.936,1.045 0.24,0.465 0.361,1.029 0.361,1.695 0,1.057 -0.232,1.881 -0.698,2.469 C 3.822,2.953 3.21,3.248 2.45,3.248 1.708,3.248 1.115,2.967 0.669,2.402 0.223,1.84 0,1.039 0,0 m 7.513,3.287 0,-7.531 C 7.513,-5.105 7.42,-5.848 7.236,-6.469 7.054,-7.088 6.759,-7.602 6.354,-8.006 5.948,-8.41 5.418,-8.713 4.763,-8.908 4.108,-9.105 3.292,-9.203 2.317,-9.203 c -0.893,0 -1.691,0.125 -2.394,0.375 -0.702,0.252 -1.243,0.574 -1.624,0.969 -0.379,0.396 -0.57,0.802 -0.57,1.22 0,0.317 0.108,0.577 0.324,0.774 0.215,0.201 0.475,0.301 0.778,0.301 0.38,0 0.712,-0.168 0.998,-0.504 0.138,-0.17 0.282,-0.344 0.431,-0.518 0.149,-0.176 0.315,-0.324 0.494,-0.447 0.181,-0.123 0.398,-0.215 0.651,-0.276 0.253,-0.058 0.545,-0.089 0.874,-0.089 0.671,0 1.192,0.093 1.563,0.281 0.37,0.185 0.63,0.447 0.779,0.783 0.149,0.334 0.235,0.693 0.261,1.078 0.025,0.383 0.044,0.998 0.056,1.848 C 4.539,-3.967 4.08,-4.391 3.556,-4.682 3.034,-4.973 2.412,-5.119 1.69,-5.119 c -0.867,0 -1.625,0.223 -2.275,0.666 -0.648,0.443 -1.147,1.062 -1.495,1.861 -0.349,0.799 -0.522,1.719 -0.522,2.764 0,0.777 0.105,1.482 0.317,2.107 0.213,0.629 0.515,1.157 0.908,1.588 0.392,0.43 0.845,0.754 1.357,0.973 0.513,0.219 1.077,0.328 1.691,0.328 0.734,0 1.371,-0.143 1.91,-0.422 0.537,-0.283 1.038,-0.725 1.5,-1.326 l 0,0.351 c 0,0.45 0.11,0.797 0.332,1.045 0.222,0.246 0.507,0.371 0.856,0.371 0.5,0 0.832,-0.164 0.996,-0.49 C 7.43,4.371 7.513,3.9 7.513,3.287" /></g><g
         transform="translate(331.1221,777.0693)"
         id="g102"><path
           inkscape:connector-curvature="0"
           id="path104"
           style="fill:#4b4b4b;fill-opacity:1;fill-rule:nonzero;stroke:none"
           d="M 0,0 0,-0.312 C 0.455,0.289 0.954,0.73 1.496,1.012 2.037,1.293 2.659,1.436 3.362,1.436 4.046,1.436 4.657,1.285 5.195,0.988 5.733,0.689 6.136,0.27 6.401,-0.273 6.573,-0.592 6.683,-0.934 6.733,-1.301 6.784,-1.668 6.811,-2.137 6.811,-2.707 l 0,-4.824 c 0,-0.52 -0.12,-0.912 -0.357,-1.178 -0.238,-0.266 -0.546,-0.398 -0.926,-0.398 -0.387,0 -0.7,0.134 -0.941,0.408 -0.241,0.271 -0.36,0.662 -0.36,1.168 l 0,4.322 c 0,0.854 -0.12,1.508 -0.357,1.961 -0.238,0.451 -0.71,0.68 -1.42,0.68 -0.462,0 -0.883,-0.139 -1.263,-0.414 C 0.807,-1.258 0.528,-1.637 0.351,-2.117 0.225,-2.504 0.161,-3.225 0.161,-4.283 l 0,-3.248 c 0,-0.526 -0.122,-0.92 -0.365,-1.184 -0.244,-0.262 -0.559,-0.392 -0.945,-0.392 -0.374,0 -0.681,0.134 -0.922,0.408 -0.24,0.271 -0.361,0.662 -0.361,1.168 l 0,7.494 c 0,0.494 0.108,0.863 0.323,1.107 0.215,0.242 0.51,0.366 0.883,0.366 0.228,0 0.434,-0.055 0.619,-0.163 0.182,-0.109 0.33,-0.269 0.441,-0.484 C -0.055,0.574 0,0.311 0,0" /></g><g
         transform="translate(341.8252,774.0674)"
         id="g106"><path
           inkscape:connector-curvature="0"
           id="path108"
           style="fill:#4b4b4b;fill-opacity:1;fill-rule:nonzero;stroke:none"
           d="M 0,0 4.701,0 C 4.638,0.887 4.399,1.551 3.984,1.99 3.569,2.432 3.023,2.65 2.346,2.65 1.7,2.65 1.169,2.428 0.754,1.982 0.339,1.535 0.089,0.875 0,0 m 5.071,-1.473 -5.071,0 c 0.007,-0.588 0.125,-1.107 0.356,-1.556 0.231,-0.45 0.538,-0.789 0.922,-1.016 0.382,-0.228 0.805,-0.342 1.267,-0.342 0.31,0 0.594,0.035 0.851,0.108 0.255,0.074 0.504,0.187 0.746,0.343 0.239,0.155 0.461,0.321 0.665,0.498 0.201,0.178 0.464,0.42 0.787,0.723 0.133,0.113 0.323,0.172 0.57,0.172 0.266,0 0.482,-0.074 0.646,-0.221 0.165,-0.146 0.247,-0.349 0.247,-0.617 0,-0.234 -0.092,-0.506 -0.276,-0.82 C 6.597,-4.516 6.32,-4.816 5.95,-5.104 5.579,-5.393 5.115,-5.631 4.554,-5.82 3.994,-6.012 3.349,-6.105 2.621,-6.105 c -1.665,0 -2.96,0.474 -3.885,1.423 -0.924,0.95 -1.386,2.239 -1.386,3.866 0,0.767 0.114,1.478 0.341,2.132 0.228,0.657 0.561,1.217 0.998,1.686 0.437,0.469 0.976,0.828 1.615,1.078 0.639,0.25 1.349,0.375 2.128,0.375 1.012,0 1.88,-0.213 2.606,-0.641 C 5.763,3.387 6.306,2.834 6.667,2.158 7.028,1.48 7.209,0.789 7.209,0.088 7.209,-0.566 7.022,-0.988 6.648,-1.182 6.275,-1.375 5.75,-1.473 5.071,-1.473" /></g><g
         transform="translate(352.3667,773.251)"
         id="g110"><path
           inkscape:connector-curvature="0"
           id="path112"
           style="fill:#4b4b4b;fill-opacity:1;fill-rule:nonzero;stroke:none"
           d="M 0,0 C 0,-0.703 0.108,-1.301 0.327,-1.795 0.545,-2.289 0.845,-2.66 1.226,-2.91 1.605,-3.16 2.02,-3.287 2.469,-3.287 c 0.456,0 0.873,0.119 1.249,0.357 0.377,0.237 0.678,0.602 0.902,1.092 C 4.845,-1.348 4.958,-0.732 4.958,0 4.958,0.691 4.845,1.285 4.62,1.783 4.396,2.279 4.092,2.658 3.708,2.922 3.325,3.184 2.906,3.314 2.45,3.314 1.976,3.314 1.551,3.18 1.177,2.912 0.804,2.643 0.514,2.258 0.308,1.754 0.102,1.25 0,0.666 0,0 m 5.1,-3.809 0,0.258 C 4.751,-3.949 4.408,-4.275 4.069,-4.523 3.73,-4.775 3.364,-4.965 2.968,-5.094 2.573,-5.227 2.14,-5.289 1.672,-5.289 c -0.622,0 -1.196,0.131 -1.724,0.393 -0.529,0.263 -0.987,0.638 -1.373,1.126 -0.387,0.487 -0.679,1.059 -0.878,1.719 -0.2,0.658 -0.3,1.371 -0.3,2.137 0,1.621 0.396,2.885 1.187,3.791 0.792,0.904 1.834,1.357 3.125,1.357 C 2.457,5.234 3.087,5.105 3.6,4.85 4.112,4.594 4.613,4.197 5.1,3.668 l 0,3.826 C 5.1,8.027 5.206,8.428 5.418,8.701 5.63,8.973 5.933,9.109 6.326,9.109 6.718,9.109 7.02,8.984 7.232,8.734 7.444,8.482 7.551,8.115 7.551,7.627 l 0,-11.436 C 7.551,-4.303 7.437,-4.672 7.209,-4.92 6.981,-5.166 6.687,-5.289 6.326,-5.289 5.971,-5.289 5.678,-5.162 5.447,-4.906 5.215,-4.648 5.1,-4.283 5.1,-3.809" /></g><g
         transform="translate(368.188,773.1748)"
         id="g114"><path
           inkscape:connector-curvature="0"
           id="path116"
           style="fill:#4b4b4b;fill-opacity:1;fill-rule:nonzero;stroke:none"
           d="m 0,0 c 0,-1.031 0.236,-1.824 0.708,-2.377 0.471,-0.555 1.09,-0.834 1.856,-0.834 0.652,0 1.215,0.283 1.686,0.852 0.472,0.566 0.708,1.379 0.708,2.435 C 4.958,0.76 4.86,1.35 4.664,1.844 4.467,2.338 4.189,2.719 3.828,2.988 3.467,3.256 3.045,3.391 2.564,3.391 2.071,3.391 1.63,3.256 1.244,2.988 0.858,2.719 0.554,2.33 0.332,1.82 0.111,1.311 0,0.703 0,0 m -0.124,7.703 0,-3.959 c 0.488,0.506 0.985,0.895 1.492,1.162 0.506,0.27 1.133,0.405 1.881,0.405 0.861,0 1.615,-0.206 2.265,-0.612 0.648,-0.41 1.152,-1.002 1.51,-1.777 0.357,-0.776 0.537,-1.695 0.537,-2.76 0,-0.785 -0.1,-1.504 -0.299,-2.16 C 7.062,-2.654 6.772,-3.223 6.393,-3.703 6.012,-4.184 5.552,-4.557 5.011,-4.82 4.469,-5.082 3.872,-5.213 3.22,-5.213 c -0.399,0 -0.775,0.047 -1.125,0.143 -0.352,0.093 -0.652,0.218 -0.898,0.375 -0.246,0.154 -0.457,0.314 -0.632,0.478 -0.174,0.164 -0.404,0.412 -0.689,0.742 l 0,-0.257 c 0,-0.487 -0.117,-0.856 -0.351,-1.108 -0.233,-0.25 -0.531,-0.373 -0.893,-0.373 -0.367,0 -0.66,0.123 -0.878,0.373 -0.219,0.252 -0.328,0.621 -0.328,1.108 l 0,11.322 c 0,0.525 0.106,0.924 0.318,1.191 0.212,0.27 0.509,0.405 0.888,0.405 0.4,0 0.706,-0.129 0.922,-0.385 0.215,-0.258 0.322,-0.621 0.322,-1.098" /></g><g
         transform="translate(379.1104,767.6377)"
         id="g118"><path
           inkscape:connector-curvature="0"
           id="path120"
           style="fill:#4b4b4b;fill-opacity:1;fill-rule:nonzero;stroke:none"
           d="m 0,0 0.237,0.58 -3.191,8.035 c -0.196,0.461 -0.295,0.799 -0.295,1.008 0,0.221 0.058,0.426 0.171,0.615 0.115,0.192 0.271,0.344 0.47,0.457 0.2,0.116 0.407,0.172 0.623,0.172 0.373,0 0.654,-0.119 0.845,-0.357 0.191,-0.237 0.358,-0.576 0.503,-1.02 l 2.195,-6.383 2.08,5.936 c 0.164,0.48 0.313,0.857 0.446,1.131 0.133,0.271 0.273,0.455 0.422,0.549 0.149,0.095 0.36,0.144 0.632,0.144 0.197,0 0.385,-0.053 0.566,-0.158 0.18,-0.104 0.319,-0.244 0.417,-0.422 C 6.219,10.109 6.269,9.924 6.269,9.727 6.243,9.607 6.203,9.436 6.145,9.213 6.087,8.992 6.019,8.766 5.937,8.539 L 2.555,-0.312 C 2.263,-1.092 1.979,-1.701 1.7,-2.145 1.421,-2.588 1.053,-2.93 0.593,-3.166 0.134,-3.404 -0.485,-3.523 -1.264,-3.523 c -0.759,0 -1.329,0.082 -1.708,0.246 -0.382,0.166 -0.57,0.466 -0.57,0.904 0,0.297 0.089,0.527 0.271,0.687 0.179,0.163 0.447,0.245 0.801,0.245 0.139,0 0.276,-0.02 0.409,-0.059 0.165,-0.037 0.307,-0.057 0.427,-0.057 0.297,0 0.532,0.043 0.703,0.133 0.171,0.088 0.324,0.242 0.461,0.461 C -0.334,-0.746 -0.177,-0.424 0,0" /></g><g
         transform="translate(416.6729,778.2803)"
         id="g122"><path
           inkscape:connector-curvature="0"
           id="path124"
           style="fill:#4b4b4b;fill-opacity:1;fill-rule:nonzero;stroke:none"
           d="m 0,0 0.619,0 0,0.777 c 0,0.815 0.1,1.457 0.307,1.938 0.203,0.478 0.554,0.826 1.047,1.045 0.49,0.217 1.162,0.326 2.015,0.326 1.52,0 2.274,-0.367 2.274,-1.113 C 6.262,2.734 6.182,2.527 6.021,2.357 5.867,2.188 5.678,2.102 5.463,2.102 5.363,2.102 5.186,2.119 4.936,2.16 4.699,2.193 4.484,2.217 4.312,2.217 3.846,2.217 3.547,2.076 3.408,1.801 3.281,1.525 3.213,1.133 3.213,0.617 L 3.213,0 3.846,0 c 0.99,0 1.48,-0.297 1.48,-0.896 0,-0.418 -0.127,-0.69 -0.392,-0.805 -0.262,-0.113 -0.623,-0.17 -1.088,-0.17 l -0.633,0 0,-6.871 c 0,-0.512 -0.121,-0.901 -0.369,-1.168 -0.242,-0.274 -0.555,-0.406 -0.944,-0.406 -0.367,0 -0.67,0.132 -0.918,0.406 -0.244,0.267 -0.363,0.656 -0.363,1.168 l 0,6.871 -0.715,0 c -0.388,0 -0.681,0.084 -0.892,0.262 -0.209,0.17 -0.315,0.398 -0.315,0.677 C -1.303,-0.309 -0.869,0 0,0" /></g><g
         transform="translate(425.1631,771.7061)"
         id="g126"><path
           inkscape:connector-curvature="0"
           id="path128"
           style="fill:#4b4b4b;fill-opacity:1;fill-rule:nonzero;stroke:none"
           d="m 0,0 0,-2.168 c 0,-0.523 -0.133,-0.92 -0.375,-1.18 -0.246,-0.265 -0.559,-0.394 -0.937,-0.394 -0.381,0 -0.688,0.131 -0.926,0.4 -0.237,0.264 -0.362,0.656 -0.362,1.174 l 0,7.223 c 0,1.166 0.42,1.748 1.262,1.748 0.434,0 0.742,-0.135 0.934,-0.408 0.189,-0.274 0.295,-0.674 0.316,-1.208 0.309,0.534 0.625,0.934 0.949,1.208 0.332,0.273 0.762,0.408 1.309,0.408 0.549,0 1.072,-0.135 1.586,-0.408 C 4.271,6.121 4.527,5.758 4.527,5.311 4.527,4.996 4.416,4.73 4.201,4.529 3.98,4.32 3.746,4.217 3.494,4.217 3.395,4.217 3.164,4.279 2.803,4.396 2.438,4.51 2.113,4.57 1.84,4.57 1.459,4.57 1.146,4.467 0.908,4.271 0.666,4.066 0.477,3.775 0.344,3.385 0.215,2.99 0.125,2.52 0.07,1.98 0.021,1.439 0,0.777 0,0" /></g><g
         transform="translate(432.0088,774.0732)"
         id="g130"><path
           inkscape:connector-curvature="0"
           id="path132"
           style="fill:#4b4b4b;fill-opacity:1;fill-rule:nonzero;stroke:none"
           d="M 0,0 4.701,0 C 4.639,0.885 4.404,1.549 3.988,1.986 3.57,2.428 3.029,2.646 2.348,2.646 1.701,2.646 1.17,2.426 0.756,1.977 0.342,1.531 0.088,0.873 0,0 m 5.074,-1.475 -5.074,0 c 0.01,-0.588 0.125,-1.111 0.355,-1.558 0.235,-0.447 0.54,-0.787 0.924,-1.018 0.385,-0.226 0.805,-0.34 1.27,-0.34 0.31,0 0.592,0.034 0.849,0.112 0.254,0.07 0.504,0.185 0.745,0.341 0.242,0.153 0.461,0.319 0.664,0.5 0.203,0.174 0.466,0.417 0.791,0.719 0.134,0.114 0.324,0.174 0.568,0.174 0.268,0 0.48,-0.074 0.648,-0.223 0.166,-0.146 0.245,-0.349 0.245,-0.617 0,-0.234 -0.09,-0.508 -0.268,-0.818 C 6.604,-4.521 6.328,-4.82 5.955,-5.109 5.58,-5.395 5.115,-5.637 4.557,-5.824 3.998,-6.014 3.352,-6.109 2.625,-6.109 c -1.67,0 -2.963,0.472 -3.887,1.422 -0.924,0.951 -1.39,2.242 -1.39,3.867 0,0.767 0.117,1.478 0.347,2.134 0.225,0.659 0.557,1.217 0.998,1.688 0.436,0.471 0.971,0.828 1.614,1.078 0.636,0.25 1.345,0.375 2.127,0.375 1.011,0 1.88,-0.215 2.607,-0.646 C 5.764,3.387 6.314,2.832 6.67,2.154 7.031,1.475 7.211,0.787 7.211,0.08 7.211,-0.568 7.023,-0.99 6.65,-1.186 6.277,-1.379 5.752,-1.475 5.074,-1.475" /></g><g
         transform="translate(442.7979,774.0732)"
         id="g134"><path
           inkscape:connector-curvature="0"
           id="path136"
           style="fill:#4b4b4b;fill-opacity:1;fill-rule:nonzero;stroke:none"
           d="M 0,0 4.701,0 C 4.637,0.885 4.396,1.549 3.986,1.986 3.564,2.428 3.023,2.646 2.344,2.646 1.697,2.646 1.168,2.426 0.75,1.977 0.338,1.531 0.084,0.873 0,0 m 5.072,-1.475 -5.072,0 c 0.006,-0.588 0.125,-1.111 0.354,-1.558 0.232,-0.447 0.539,-0.787 0.921,-1.018 0.383,-0.226 0.805,-0.34 1.272,-0.34 0.307,0 0.592,0.034 0.844,0.112 0.259,0.07 0.505,0.185 0.75,0.341 0.242,0.153 0.461,0.319 0.664,0.5 0.199,0.174 0.465,0.417 0.789,0.719 0.135,0.114 0.326,0.174 0.568,0.174 0.268,0 0.483,-0.074 0.65,-0.223 0.165,-0.146 0.241,-0.349 0.241,-0.617 0,-0.234 -0.088,-0.508 -0.274,-0.818 C 6.602,-4.521 6.324,-4.82 5.949,-5.109 5.578,-5.395 5.109,-5.637 4.553,-5.824 3.996,-6.014 3.346,-6.109 2.619,-6.109 c -1.668,0 -2.959,0.472 -3.887,1.422 -0.923,0.951 -1.388,2.242 -1.388,3.867 0,0.767 0.115,1.478 0.347,2.134 0.227,0.659 0.559,1.217 0.997,1.688 C -0.877,3.473 -0.34,3.83 0.301,4.08 0.939,4.33 1.652,4.455 2.43,4.455 3.439,4.455 4.309,4.24 5.043,3.809 5.764,3.387 6.309,2.832 6.664,2.154 7.023,1.475 7.209,0.787 7.209,0.08 7.209,-0.568 7.018,-0.99 6.648,-1.186 6.273,-1.379 5.748,-1.475 5.072,-1.475" /></g><g
         transform="translate(458.6338,773.2822)"
         id="g138"><path
           inkscape:connector-curvature="0"
           id="path140"
           style="fill:#4b4b4b;fill-opacity:1;fill-rule:nonzero;stroke:none"
           d="m 0,0 c 0,0.686 -0.105,1.273 -0.314,1.764 -0.209,0.492 -0.498,0.867 -0.866,1.127 -0.367,0.263 -0.783,0.396 -1.232,0.396 -0.715,0 -1.318,-0.283 -1.809,-0.844 -0.492,-0.566 -0.74,-1.394 -0.74,-2.492 0,-1.027 0.244,-1.834 0.736,-2.406 0.487,-0.574 1.086,-0.859 1.813,-0.859 0.428,0 0.83,0.126 1.197,0.373 0.371,0.252 0.664,0.627 0.883,1.127 C -0.111,-1.312 0,-0.707 0,0 m -5.084,3.768 0,-0.311 c 0.486,0.602 0.994,1.043 1.525,1.324 0.518,0.285 1.118,0.428 1.782,0.428 C -0.982,5.209 -0.242,5 0.43,4.592 1.102,4.178 1.629,3.576 2.02,2.785 2.408,1.99 2.605,1.055 2.605,-0.029 2.605,-0.824 2.492,-1.561 2.27,-2.23 2.045,-2.898 1.732,-3.457 1.34,-3.91 0.947,-4.359 0.484,-4.711 -0.049,-4.955 -0.592,-5.197 -1.16,-5.318 -1.777,-5.318 c -0.739,0 -1.364,0.148 -1.866,0.447 -0.502,0.291 -0.982,0.732 -1.441,1.305 l 0,-3.893 c 0,-1.135 -0.416,-1.709 -1.244,-1.709 -0.49,0 -0.809,0.147 -0.971,0.439 -0.152,0.299 -0.234,0.723 -0.234,1.292 l 0,11.193 c 0,0.494 0.107,0.859 0.32,1.107 0.215,0.239 0.512,0.364 0.885,0.364 0.369,0 0.666,-0.125 0.896,-0.373 0.235,-0.254 0.348,-0.612 0.348,-1.086" /></g><g
         transform="translate(465.1338,777.0381)"
         id="g142"><path
           inkscape:connector-curvature="0"
           id="path144"
           style="fill:#4b4b4b;fill-opacity:1;fill-rule:nonzero;stroke:none"
           d="m 0,0 0,-7.502 c 0,-0.516 -0.123,-0.908 -0.369,-1.172 -0.25,-0.269 -0.561,-0.4 -0.942,-0.4 -0.38,0 -0.685,0.133 -0.927,0.406 -0.235,0.275 -0.356,0.664 -0.356,1.166 l 0,7.428 c 0,0.51 0.121,0.894 0.356,1.154 0.242,0.264 0.547,0.391 0.927,0.391 0.381,0 0.692,-0.127 0.942,-0.391 C -0.123,0.82 0,0.457 0,0 m -1.283,2.678 c -0.363,0 -0.67,0.115 -0.924,0.336 -0.26,0.222 -0.387,0.531 -0.387,0.935 0,0.369 0.131,0.67 0.397,0.91 0.261,0.235 0.566,0.356 0.914,0.356 0.34,0 0.635,-0.106 0.892,-0.319 C -0.131,4.678 0,4.361 0,3.949 0,3.551 -0.127,3.238 -0.377,3.014 -0.631,2.793 -0.932,2.678 -1.283,2.678" /></g><g
         transform="translate(473.4932,769.1475)"
         id="g146"><path
           inkscape:connector-curvature="0"
           id="path148"
           style="fill:#4b4b4b;fill-opacity:1;fill-rule:nonzero;stroke:none"
           d="m 0,0 -2.283,3.766 -1.408,-1.328 0,-2.067 c 0,-0.498 -0.133,-0.881 -0.397,-1.148 -0.258,-0.274 -0.566,-0.407 -0.906,-0.407 -0.399,0 -0.715,0.131 -0.942,0.401 -0.226,0.263 -0.343,0.656 -0.343,1.174 l 0,11.062 c 0,0.574 0.115,1.012 0.332,1.315 0.222,0.304 0.545,0.451 0.953,0.451 0.398,0 0.713,-0.137 0.949,-0.41 0.234,-0.272 0.354,-0.674 0.354,-1.204 l 0,-6.293 2.916,3.063 c 0.361,0.377 0.632,0.641 0.826,0.779 0.189,0.139 0.42,0.207 0.689,0.207 0.326,0 0.594,-0.103 0.817,-0.308 C 1.768,8.848 1.877,8.588 1.877,8.279 1.877,7.9 1.523,7.391 0.822,6.758 L -0.555,5.496 2.104,1.312 C 2.297,1 2.443,0.77 2.527,0.607 2.611,0.447 2.658,0.287 2.658,0.145 2.658,-0.268 2.543,-0.59 2.316,-0.83 2.092,-1.066 1.793,-1.184 1.432,-1.184 c -0.317,0 -0.565,0.08 -0.735,0.256 C 0.527,-0.756 0.291,-0.445 0,0" /></g><g
         transform="translate(479.1299,767.9639)"
         id="g150"><path
           inkscape:connector-curvature="0"
           id="path152"
           style="fill:#4b4b4b;fill-opacity:1;fill-rule:nonzero;stroke:none"
           d="m 0,0 c -0.393,0 -0.729,0.125 -1.014,0.381 -0.285,0.248 -0.429,0.605 -0.429,1.064 0,0.385 0.138,0.719 0.41,0.994 0.275,0.28 0.607,0.42 1.008,0.42 0.398,0 0.736,-0.14 1.023,-0.412 C 1.277,2.172 1.42,1.834 1.42,1.445 1.42,0.992 1.277,0.637 0.998,0.385 0.711,0.125 0.379,0 0,0" /></g><g
         transform="translate(492.0283,771.1729)"
         id="g154"><path
           inkscape:connector-curvature="0"
           id="path156"
           style="fill:#4b4b4b;fill-opacity:1;fill-rule:nonzero;stroke:none"
           d="m 0,0 c 0,-0.32 -0.098,-0.668 -0.291,-1.033 -0.191,-0.371 -0.488,-0.719 -0.887,-1.051 -0.394,-0.332 -0.89,-0.602 -1.494,-0.803 -0.601,-0.203 -1.281,-0.306 -2.031,-0.306 -1.606,0 -2.858,0.468 -3.758,1.4 -0.894,0.936 -1.346,2.189 -1.346,3.76 0,1.068 0.205,2.006 0.619,2.824 0.409,0.814 1.004,1.447 1.782,1.895 0.779,0.447 1.717,0.669 2.795,0.669 0.673,0 1.287,-0.097 1.851,-0.294 0.561,-0.196 1.033,-0.452 1.426,-0.76 0.387,-0.315 0.686,-0.643 0.889,-0.992 0.207,-0.352 0.308,-0.68 0.308,-0.987 C -0.137,4.014 -0.25,3.75 -0.48,3.535 -0.715,3.32 -0.996,3.211 -1.318,3.211 c -0.219,0 -0.399,0.057 -0.541,0.166 -0.145,0.111 -0.305,0.289 -0.479,0.541 -0.318,0.478 -0.646,0.842 -0.996,1.08 -0.344,0.242 -0.781,0.361 -1.314,0.361 -0.762,0 -1.383,-0.297 -1.854,-0.896 -0.467,-0.596 -0.703,-1.42 -0.703,-2.455 0,-0.488 0.062,-0.94 0.184,-1.348 0.117,-0.406 0.291,-0.756 0.519,-1.043 0.231,-0.287 0.504,-0.506 0.826,-0.654 0.324,-0.154 0.682,-0.227 1.065,-0.227 0.521,0 0.966,0.121 1.336,0.362 0.377,0.24 0.703,0.607 0.986,1.101 0.158,0.291 0.328,0.518 0.51,0.684 0.181,0.164 0.408,0.25 0.675,0.25 0.317,0 0.581,-0.123 0.786,-0.363 C -0.107,0.529 0,0.271 0,0" /></g><g
         transform="translate(500.6143,773.2334)"
         id="g158"><path
           inkscape:connector-curvature="0"
           id="path160"
           style="fill:#4b4b4b;fill-opacity:1;fill-rule:nonzero;stroke:none"
           d="M 0,0 C 0,1.059 -0.234,1.881 -0.697,2.469 -1.16,3.064 -1.787,3.357 -2.572,3.357 -3.08,3.357 -3.527,3.225 -3.914,2.963 -4.301,2.701 -4.596,2.314 -4.805,1.799 -5.014,1.285 -5.119,0.686 -5.119,0 c 0,-0.678 0.101,-1.268 0.308,-1.773 0.209,-0.51 0.502,-0.897 0.887,-1.166 0.385,-0.266 0.834,-0.405 1.352,-0.405 0.785,0 1.412,0.297 1.875,0.893 C -0.234,-1.861 0,-1.041 0,0 m 2.604,0 c 0,-0.77 -0.122,-1.484 -0.356,-2.139 -0.246,-0.652 -0.592,-1.213 -1.049,-1.677 -0.455,-0.469 -1.002,-0.829 -1.633,-1.08 -0.638,-0.249 -1.349,-0.375 -2.138,-0.375 -0.785,0 -1.492,0.126 -2.121,0.382 -0.623,0.248 -1.17,0.614 -1.625,1.082 -0.461,0.477 -0.809,1.034 -1.053,1.676 -0.229,0.645 -0.35,1.356 -0.35,2.131 0,0.787 0.123,1.506 0.358,2.158 0.242,0.655 0.59,1.213 1.039,1.674 0.451,0.461 0.994,0.816 1.631,1.07 0.644,0.248 1.349,0.373 2.121,0.373 0.785,0 1.498,-0.125 2.138,-0.38 C 0.205,4.643 0.75,4.279 1.211,3.814 1.668,3.34 2.014,2.785 2.25,2.143 2.484,1.492 2.604,0.783 2.604,0" /></g><g
         transform="translate(513.1104,773.0439)"
         id="g162"><path
           inkscape:connector-curvature="0"
           id="path164"
           style="fill:#4b4b4b;fill-opacity:1;fill-rule:nonzero;stroke:none"
           d="m 0,0 0,-3.447 c 0,-0.547 -0.121,-0.951 -0.369,-1.227 -0.25,-0.273 -0.572,-0.408 -0.979,-0.408 -0.392,0 -0.713,0.135 -0.951,0.408 -0.246,0.276 -0.371,0.68 -0.371,1.227 l 0,4.131 c 0,0.654 -0.021,1.162 -0.064,1.525 -0.045,0.354 -0.168,0.654 -0.362,0.883 -0.197,0.234 -0.509,0.351 -0.931,0.351 -0.85,0 -1.407,-0.291 -1.676,-0.88 C -5.971,1.986 -6.109,1.148 -6.109,0.055 l 0,-3.502 c 0,-0.537 -0.123,-0.946 -0.362,-1.223 -0.25,-0.273 -0.568,-0.412 -0.965,-0.412 -0.396,0 -0.716,0.139 -0.966,0.412 -0.252,0.277 -0.377,0.686 -0.377,1.223 l 0,7.42 c 0,0.488 0.111,0.859 0.336,1.111 0.228,0.256 0.525,0.381 0.888,0.381 0.358,0 0.653,-0.123 0.893,-0.356 0.236,-0.238 0.353,-0.566 0.353,-0.984 l 0,-0.244 c 0.454,0.535 0.936,0.931 1.446,1.18 0.515,0.259 1.082,0.386 1.713,0.386 0.65,0 1.211,-0.131 1.677,-0.39 0.469,-0.26 0.854,-0.655 1.161,-1.176 0.439,0.527 0.908,0.922 1.41,1.18 0.5,0.257 1.052,0.386 1.662,0.386 0.705,0 1.32,-0.142 1.834,-0.42 C 5.104,4.75 5.486,4.348 5.74,3.832 5.961,3.359 6.07,2.623 6.07,1.615 l 0,-5.062 C 6.07,-3.994 5.949,-4.398 5.703,-4.674 5.457,-4.947 5.129,-5.082 4.725,-5.082 4.33,-5.082 4.01,-4.943 3.76,-4.67 3.51,-4.393 3.383,-3.984 3.383,-3.447 l 0,4.361 C 3.383,1.473 3.359,1.918 3.314,2.252 3.268,2.59 3.137,2.873 2.932,3.1 2.719,3.326 2.4,3.443 1.979,3.443 1.637,3.443 1.312,3.336 1.004,3.135 0.697,2.938 0.457,2.658 0.283,2.322 0.098,1.885 0,1.109 0,0" /></g><g
         transform="translate(392.4053,773.8623)"
         id="g166"><path
           inkscape:connector-curvature="0"
           id="path168"
           style="fill:#4b4b4b;fill-opacity:1;fill-rule:nonzero;stroke:none"
           d="M 0,0 C -0.002,0.004 -0.002,0.01 -0.002,0.018 -0.002,0.01 -0.002,0.004 0,0" /></g><g
         transform="translate(392.5361,773.0322)"
         id="g170"><path
           inkscape:connector-curvature="0"
           id="path172"
           style="fill:#4b4b4b;fill-opacity:1;fill-rule:nonzero;stroke:none"
           d="M 0,0 0.003,0 C -0.047,0.236 -0.085,0.471 -0.116,0.703 -0.085,0.469 -0.047,0.234 0,0" /></g><g
         transform="translate(393.3945,770.626)"
         id="g174"><path
           inkscape:connector-curvature="0"
           id="path176"
           style="fill:#4b4b4b;fill-opacity:1;fill-rule:nonzero;stroke:none"
           d="M 0,0 C -0.006,0.01 -0.011,0.021 -0.017,0.033 -0.011,0.021 -0.006,0.01 0,0" /></g><g
         transform="translate(393.3125,770.7861)"
         id="g178"><path
           inkscape:connector-curvature="0"
           id="path180"
           style="fill:#4b4b4b;fill-opacity:1;fill-rule:nonzero;stroke:none"
           d="M 0,0 C -0.022,0.045 -0.044,0.09 -0.065,0.135 -0.044,0.088 -0.022,0.045 0,0" /></g><g
         transform="translate(392.7773,772.1064)"
         id="g182"><path
           inkscape:connector-curvature="0"
           id="path184"
           style="fill:#4b4b4b;fill-opacity:1;fill-rule:nonzero;stroke:none"
           d="M 0,0 C 0.127,-0.4 0.28,-0.789 0.457,-1.158 0.277,-0.781 0.127,-0.393 0.003,0 L 0,0 Z" /></g><g
         transform="translate(402.4434,783.7979)"
         id="g186"><path
           inkscape:connector-curvature="0"
           id="path188"
           style="fill:#4b4b4b;fill-opacity:1;fill-rule:nonzero;stroke:none"
           d="m 0,0 c 0.5,0 0.871,-0.039 1.294,-0.111 l 0.121,0.763 c 0,0 -1.171,0.36 -2.711,0.235 l -0.121,0.414 c 0.479,0.101 0.838,0.527 0.838,1.035 0,0.582 -0.474,1.053 -1.057,1.053 -0.583,0 -1.056,-0.471 -1.056,-1.053 0,-0.508 0.359,-0.934 0.836,-1.035 L -1.722,0.838 C -3.356,0.613 -4.657,-0.023 -4.657,-0.023 l 0.23,-0.706 c 0.989,0.329 1.846,0.53 2.624,0.614 C -1.041,-0.035 -0.468,0 0,0" /></g><g
         transform="translate(393.375,779.9404)"
         id="g190"><path
           inkscape:connector-curvature="0"
           id="path192"
           style="fill:#4b4b4b;fill-opacity:1;fill-rule:nonzero;stroke:none"
           d="M 0,0 0.006,0.008 C 0.044,0.057 0.082,0.104 0.119,0.15 l -0.313,0.225 -0.488,0.357 c -0.027,-0.039 -0.795,-0.744 -1.401,-2.048 -0.025,0.041 -0.056,0.082 -0.09,0.119 -0.181,0.199 -0.435,0.301 -0.758,0.295 l -0.015,0 c -0.2,0 -0.337,0.066 -0.427,0.146 0.09,0.113 0.144,0.256 0.144,0.414 0,0.367 -0.3,0.668 -0.67,0.668 -0.369,0 -0.668,-0.301 -0.668,-0.668 0,-0.371 0.299,-0.67 0.668,-0.67 0.058,0 0.113,0.01 0.167,0.022 0.165,-0.184 0.425,-0.342 0.808,-0.334 0.196,0.002 0.341,-0.049 0.437,-0.156 0.111,-0.122 0.149,-0.295 0.16,-0.428 -10e-4,-0.002 -10e-4,-0.004 -0.003,-0.004 -0.436,-1.19 -0.311,-2.67 -0.311,-2.67 l 1.057,-0.043 c 0.022,0.539 0.099,1.482 0.372,2.23 C -0.686,-0.945 -0.027,-0.039 0,0" /></g><g
         transform="translate(411.6416,782.915)"
         id="g194"><path
           inkscape:connector-curvature="0"
           id="path196"
           style="fill:#4b4b4b;fill-opacity:1;fill-rule:nonzero;stroke:none"
           d="m 0,0 c -0.367,0 -0.668,-0.299 -0.668,-0.67 0,-0.057 0.008,-0.111 0.023,-0.164 -0.183,-0.166 -0.343,-0.428 -0.337,-0.811 0.003,-0.197 -0.047,-0.339 -0.155,-0.437 -0.084,-0.074 -0.191,-0.115 -0.295,-0.141 -0.787,1.104 -1.756,1.776 -1.756,1.776 L -3.947,-1.26 c 0.574,-0.521 1.16,-1.176 1.728,-1.99 0.395,-0.564 0.799,-1.291 1.137,-2.016 l 1.023,0.487 c 0,0 -0.466,1.156 -1.125,2.191 0.114,0.041 0.229,0.104 0.33,0.193 0.202,0.18 0.299,0.436 0.293,0.758 -0.001,0.207 0.067,0.348 0.149,0.442 0.115,-0.088 0.258,-0.143 0.412,-0.143 0.371,0 0.67,0.299 0.67,0.668 C 0.67,-0.299 0.371,0 0,0" /></g><g
         transform="translate(408.9854,773.7119)"
         id="g198"><path
           inkscape:connector-curvature="0"
           id="path200"
           style="fill:#4b4b4b;fill-opacity:1;fill-rule:nonzero;stroke:none"
           d="m 0,0 c -1.41,-0.686 -3.729,-1.594 -6.782,-2.02 -1.197,-0.166 -2.359,-0.226 -3.428,-0.226 -1.391,0 -2.62,0.103 -3.562,0.223 -1.077,0.134 -1.918,0.3 -2.433,0.418 0.124,-0.393 0.274,-0.782 0.454,-1.159 0.003,-0.009 0.008,-0.021 0.013,-0.027 0.021,-0.045 0.043,-0.09 0.065,-0.135 0.022,-0.043 0.043,-0.086 0.065,-0.127 0.006,-0.011 0.011,-0.023 0.017,-0.033 0.303,-0.57 0.667,-1.094 1.081,-1.549 1.44,-1.574 2.907,-1.824 2.921,-1.826 l 0.023,-0.002 0.021,-0.008 c 0.013,-0.006 1.314,-0.425 3.292,-0.425 1.945,0 3.855,0.392 5.673,1.167 1.348,0.69 2.623,1.737 3.254,2.67 0.488,0.723 0.842,1.493 1.051,2.293 C 1.836,-0.34 1.924,0.342 1.871,1.061 1.475,0.793 0.848,0.414 0,0" /></g><g
         transform="translate(397.8555,780.3428)"
         id="g202"><path
           inkscape:connector-curvature="0"
           id="path204"
           style="fill:#4b4b4b;fill-opacity:1;fill-rule:nonzero;stroke:none"
           d="m 0,0 c 1.557,0 2.817,-1.262 2.817,-2.818 0,-1.555 -1.26,-2.815 -2.817,-2.815 -1.555,0 -2.816,1.26 -2.816,2.815 C -2.816,-1.262 -1.555,0 0,0 m 8.241,-0.07 c 0.961,0 1.744,-0.782 1.744,-1.742 0,-0.963 -0.783,-1.745 -1.744,-1.745 -0.961,0 -1.742,0.782 -1.742,1.745 0,0.96 0.781,1.742 1.742,1.742 M -4.028,-0.736 C -4.069,-0.797 -4.68,-1.662 -5.163,-2.99 -5.525,-3.984 -5.509,-5.434 -5.509,-5.449 l 0,-0.004 c 0,-0.34 0.019,-0.676 0.057,-1.01 0,-0.008 0,-0.014 0.002,-0.017 0.004,-0.043 0.011,-0.084 0.015,-0.127 0.03,-0.233 0.069,-0.467 0.119,-0.704 0.7,-0.177 4.878,-1.152 9.548,-0.501 2.927,0.408 5.15,1.273 6.499,1.927 1.122,0.543 1.842,1.035 2.12,1.239 C 12.573,-3.619 11.81,-2.006 11.108,-1 9.103,1.865 6.94,2.6 5.831,2.783 5.406,2.852 5.068,2.893 4.588,2.893 4.141,2.893 3.586,2.855 2.844,2.777 2.101,2.701 1.272,2.506 0.312,2.182 -1.036,1.73 -2.255,1.023 -3.215,0.135 L -3.248,0.104 c -0.142,-0.131 -0.439,-0.407 -0.78,-0.84" /></g></g><g
       id="g206"><g
         id="g208"
         clip-path="url(#clipPath210)"><g
           id="g214"><g
             id="g216" /><g
             id="g222"><g
               clip-path="url(#clipPath218)"
               id="g224"
               style="opacity:0.10000598"><g
                 transform="translate(482.5684,62.4268)"
                 id="g226"><path
                   d="m 0,0 c 0,-12.426 -74.086,-22.499 -165.474,-22.499 -91.388,0 -165.473,10.073 -165.473,22.499 0,12.426 74.085,22.499 165.473,22.499 C -74.086,22.499 0,12.426 0,0"
                   style="fill:#000000;fill-opacity:1;fill-rule:nonzero;stroke:none"
                   id="path228"
                   inkscape:connector-curvature="0" /></g></g></g></g><g
           id="g230"
           transform="translate(617.4668,421.1743)"><path
             d="M 0,0 C 0,0 25.948,-2.773 27.41,-24.296"
             style="fill:none;stroke:#333333;stroke-width:6.64599991;stroke-linecap:round;stroke-linejoin:miter;stroke-miterlimit:10;stroke-dasharray:none;stroke-opacity:1"
             id="path232"
             inkscape:connector-curvature="0" /></g><g
           id="g234"
           transform="translate(506.7715,130.3359)"><path
             d="M 0,0 C 0,0 -15.778,-24.586 -48.408,2.358"
             style="fill:none;stroke:#333333;stroke-width:6.64599991;stroke-linecap:round;stroke-linejoin:miter;stroke-miterlimit:10;stroke-dasharray:none;stroke-opacity:1"
             id="path236"
             inkscape:connector-curvature="0" /></g><g
           id="g238"
           transform="translate(639.2256,378.5801)"><path
             d="m 0,0 c -1.224,-1.062 -3.076,-0.932 -4.143,0.295 l -7.811,9.931 c -1.064,1.226 -0.931,3.081 0.295,4.142 1.221,1.066 3.077,0.933 4.14,-0.29 L 0.292,4.144 C 1.356,2.919 1.224,1.065 0,0"
             style="fill:#333333;fill-opacity:1;fill-rule:nonzero;stroke:none"
             id="path240"
             inkscape:connector-curvature="0" /></g><g
           id="g242"
           transform="translate(631.4707,362.1836)"><path
             d="m 0,0 c -1.225,-1.063 -3.078,-0.934 -4.144,0.292 l -7.81,9.936 c -1.063,1.223 -0.931,3.076 0.293,4.139 1.222,1.064 3.079,0.934 4.141,-0.291 L 0.291,4.143 C 1.357,2.919 1.226,1.063 0,0"
             style="fill:#333333;fill-opacity:1;fill-rule:nonzero;stroke:none"
             id="path244"
             inkscape:connector-curvature="0" /></g><g
           id="g246"
           transform="translate(623.7148,345.7871)"><path
             d="m 0,0 c -1.224,-1.064 -3.077,-0.934 -4.144,0.292 l -7.809,9.935 c -1.062,1.222 -0.933,3.076 0.292,4.14 1.223,1.064 3.079,0.932 4.14,-0.294 L 0.293,4.141 C 1.356,2.915 1.227,1.062 0,0"
             style="fill:#333333;fill-opacity:1;fill-rule:nonzero;stroke:none"
             id="path248"
             inkscape:connector-curvature="0" /></g><g
           id="g250"
           transform="translate(615.9619,329.3887)"><path
             d="m 0,0 c -1.227,-1.063 -3.077,-0.932 -4.145,0.293 l -7.809,9.934 c -1.065,1.224 -0.932,3.078 0.291,4.139 1.225,1.067 3.078,0.934 4.142,-0.29 L 0.29,4.14 C 1.354,2.916 1.224,1.063 0,0"
             style="fill:#333333;fill-opacity:1;fill-rule:nonzero;stroke:none"
             id="path252"
             inkscape:connector-curvature="0" /></g><g
           id="g254"
           transform="translate(608.2051,312.9902)"><path
             d="m 0,0 c -1.224,-1.062 -3.077,-0.933 -4.144,0.295 l -7.81,9.931 c -1.064,1.223 -0.931,3.08 0.293,4.142 1.223,1.065 3.077,0.933 4.141,-0.291 L 0.291,4.143 C 1.357,2.919 1.225,1.065 0,0"
             style="fill:#333333;fill-opacity:1;fill-rule:nonzero;stroke:none"
             id="path256"
             inkscape:connector-curvature="0" /></g><g
           id="g258"
           transform="translate(600.4492,296.5937)"><path
             d="m 0,0 c -1.223,-1.064 -3.077,-0.934 -4.143,0.292 l -7.809,9.935 c -1.064,1.222 -0.934,3.076 0.292,4.142 1.223,1.061 3.078,0.932 4.14,-0.295 L 0.292,4.142 C 1.357,2.918 1.227,1.062 0,0"
             style="fill:#333333;fill-opacity:1;fill-rule:nonzero;stroke:none"
             id="path260"
             inkscape:connector-curvature="0" /></g><g
           id="g262"
           transform="translate(592.6963,280.1963)"><path
             d="m 0,0 c -1.226,-1.064 -3.079,-0.933 -4.145,0.292 l -7.811,9.936 c -1.063,1.223 -0.932,3.075 0.293,4.138 1.224,1.066 3.078,0.933 4.141,-0.293 L 0.291,4.14 C 1.354,2.916 1.223,1.062 0,0"
             style="fill:#333333;fill-opacity:1;fill-rule:nonzero;stroke:none"
             id="path264"
             inkscape:connector-curvature="0" /></g><g
           id="g266"
           transform="translate(584.9404,263.7969)"><path
             d="m 0,0 c -1.226,-1.062 -3.078,-0.932 -4.144,0.295 l -7.811,9.932 c -1.063,1.225 -0.931,3.079 0.294,4.141 1.223,1.066 3.077,0.933 4.14,-0.291 L 0.29,4.143 C 1.354,2.917 1.225,1.065 0,0"
             style="fill:#333333;fill-opacity:1;fill-rule:nonzero;stroke:none"
             id="path268"
             inkscape:connector-curvature="0" /></g><g
           id="g270"
           transform="translate(577.5801,248.2363)"><path
             d="m 0,0 c -1.225,-1.061 -3.077,-0.932 -4.144,0.293 l -7.811,9.934 c -1.063,1.223 -0.931,3.077 0.295,4.142 1.222,1.062 3.078,0.933 4.139,-0.292 L 0.29,4.142 C 1.356,2.916 1.226,1.063 0,0"
             style="fill:#333333;fill-opacity:1;fill-rule:nonzero;stroke:none"
             id="path272"
             inkscape:connector-curvature="0" /></g><g
           id="g274"
           transform="translate(569.8818,231.9561)"><path
             d="m 0,0 c -1.224,-1.061 -3.078,-0.932 -4.145,0.295 l -7.81,9.933 c -1.063,1.224 -0.932,3.079 0.294,4.141 1.223,1.066 3.077,0.935 4.14,-0.29 L 0.292,4.143 C 1.355,2.92 1.225,1.066 0,0"
             style="fill:#333333;fill-opacity:1;fill-rule:nonzero;stroke:none"
             id="path276"
             inkscape:connector-curvature="0" /></g><g
           id="g278"
           transform="translate(562.1826,215.6807)"><path
             d="m 0,0 c -1.223,-1.063 -3.078,-0.934 -4.144,0.293 l -7.809,9.934 c -1.063,1.224 -0.932,3.077 0.294,4.143 1.221,1.062 3.076,0.931 4.138,-0.294 L 0.292,4.143 C 1.356,2.918 1.226,1.063 0,0"
             style="fill:#333333;fill-opacity:1;fill-rule:nonzero;stroke:none"
             id="path280"
             inkscape:connector-curvature="0" /></g><g
           id="g282"
           transform="translate(554.4834,199.4004)"><path
             d="m 0,0 c -1.223,-1.061 -3.078,-0.931 -4.144,0.293 l -7.809,9.934 c -1.064,1.225 -0.931,3.08 0.292,4.143 1.224,1.064 3.078,0.933 4.142,-0.29 L 0.292,4.144 C 1.357,2.917 1.226,1.064 0,0"
             style="fill:#333333;fill-opacity:1;fill-rule:nonzero;stroke:none"
             id="path284"
             inkscape:connector-curvature="0" /></g><g
           id="g286"
           transform="translate(546.8418,183.2441)"><path
             d="m 0,0 c -1.223,-1.064 -3.076,-0.932 -4.143,0.293 l -7.81,9.934 c -1.065,1.222 -0.934,3.076 0.292,4.139 1.223,1.066 3.078,0.935 4.14,-0.292 L 0.292,4.14 C 1.355,2.915 1.226,1.063 0,0"
             style="fill:#333333;fill-opacity:1;fill-rule:nonzero;stroke:none"
             id="path288"
             inkscape:connector-curvature="0" /></g><g
           id="g290"
           transform="translate(539.0859,166.8447)"><path
             d="m 0,0 c -1.224,-1.061 -3.076,-0.931 -4.143,0.294 l -7.811,9.933 c -1.063,1.226 -0.931,3.08 0.294,4.143 1.222,1.065 3.078,0.932 4.141,-0.291 L 0.292,4.142 C 1.356,2.918 1.225,1.064 0,0"
             style="fill:#333333;fill-opacity:1;fill-rule:nonzero;stroke:none"
             id="path292"
             inkscape:connector-curvature="0" /></g><g
           id="g294"
           transform="translate(531.3311,150.4473)"><path
             d="m 0,0 c -1.225,-1.062 -3.077,-0.932 -4.144,0.294 l -7.81,9.934 c -1.063,1.223 -0.931,3.077 0.294,4.141 1.222,1.063 3.077,0.932 4.141,-0.291 L 0.293,4.143 C 1.357,2.92 1.225,1.065 0,0"
             style="fill:#333333;fill-opacity:1;fill-rule:nonzero;stroke:none"
             id="path296"
             inkscape:connector-curvature="0" /></g><g
           id="g298"
           transform="translate(523.6895,134.291)"><path
             d="m 0,0 c -1.225,-1.064 -3.077,-0.933 -4.144,0.291 l -7.809,9.936 c -1.064,1.224 -0.933,3.078 0.292,4.142 1.223,1.062 3.078,0.932 4.14,-0.295 L 0.293,4.143 C 1.356,2.916 1.226,1.062 0,0"
             style="fill:#333333;fill-opacity:1;fill-rule:nonzero;stroke:none"
             id="path300"
             inkscape:connector-curvature="0" /></g><g
           id="g302"
           transform="translate(648.0225,397.6699)"><path
             d="m 0,0 c 0.548,-1.527 -0.249,-3.208 -1.774,-3.755 l -16.16,-5.78 c -1.526,-0.548 -3.206,0.247 -3.753,1.773 -0.546,1.529 0.248,3.208 1.776,3.755 L -3.755,1.772 C -2.226,2.32 -0.546,1.525 0,0"
             style="fill:#4d4d4d;fill-opacity:1;fill-rule:nonzero;stroke:none"
             id="path304"
             inkscape:connector-curvature="0" /></g><g
           id="g306"
           transform="translate(640.3232,381.3896)"><path
             d="m 0,0 c 0.547,-1.525 -0.248,-3.205 -1.774,-3.753 l -16.159,-5.778 c -1.527,-0.549 -3.207,0.243 -3.754,1.772 -0.546,1.528 0.249,3.206 1.776,3.753 L -3.754,1.775 C -2.226,2.322 -0.547,1.528 0,0"
             style="fill:#4d4d4d;fill-opacity:1;fill-rule:nonzero;stroke:none"
             id="path308"
             inkscape:connector-curvature="0" /></g><g
           id="g310"
           transform="translate(632.624,365.1123)"><path
             d="m 0,0 c 0.547,-1.528 -0.248,-3.207 -1.774,-3.752 l -16.158,-5.781 c -1.529,-0.549 -3.208,0.247 -3.755,1.774 -0.545,1.528 0.25,3.206 1.777,3.753 l 16.156,5.78 C -2.225,2.323 -0.547,1.527 0,0"
             style="fill:#4d4d4d;fill-opacity:1;fill-rule:nonzero;stroke:none"
             id="path312"
             inkscape:connector-curvature="0" /></g><g
           id="g314"
           transform="translate(624.9258,348.834)"><path
             d="m 0,0 c 0.547,-1.527 -0.246,-3.207 -1.775,-3.753 l -16.158,-5.779 c -1.528,-0.549 -3.207,0.245 -3.754,1.774 -0.545,1.526 0.249,3.206 1.775,3.753 L -3.754,1.773 C -2.226,2.321 -0.547,1.529 0,0"
             style="fill:#4d4d4d;fill-opacity:1;fill-rule:nonzero;stroke:none"
             id="path316"
             inkscape:connector-curvature="0" /></g><g
           id="g318"
           transform="translate(617.2266,332.5566)"><path
             d="m 0,0 c 0.547,-1.527 -0.246,-3.207 -1.774,-3.753 l -16.159,-5.782 c -1.527,-0.547 -3.206,0.247 -3.753,1.774 -0.546,1.53 0.248,3.209 1.774,3.756 l 16.16,5.778 C -2.227,2.321 -0.547,1.526 0,0"
             style="fill:#4d4d4d;fill-opacity:1;fill-rule:nonzero;stroke:none"
             id="path320"
             inkscape:connector-curvature="0" /></g><g
           id="g322"
           transform="translate(609.5283,316.2783)"><path
             d="m 0,0 c 0.547,-1.527 -0.247,-3.206 -1.775,-3.753 l -16.157,-5.781 c -1.529,-0.547 -3.209,0.247 -3.755,1.774 -0.544,1.528 0.248,3.206 1.776,3.753 l 16.158,5.78 C -2.225,2.321 -0.545,1.528 0,0"
             style="fill:#4d4d4d;fill-opacity:1;fill-rule:nonzero;stroke:none"
             id="path324"
             inkscape:connector-curvature="0" /></g><g
           id="g326"
           transform="translate(601.8311,300.001)"><path
             d="m 0,0 c 0.546,-1.528 -0.248,-3.209 -1.775,-3.756 l -16.159,-5.778 c -1.527,-0.548 -3.207,0.247 -3.753,1.774 -0.547,1.526 0.247,3.206 1.775,3.752 L -3.756,1.773 C -2.227,2.322 -0.547,1.527 0,0"
             style="fill:#4d4d4d;fill-opacity:1;fill-rule:nonzero;stroke:none"
             id="path328"
             inkscape:connector-curvature="0" /></g><g
           id="g330"
           transform="translate(594.1318,283.7207)"><path
             d="m 0,0 c 0.547,-1.524 -0.248,-3.205 -1.775,-3.751 l -16.157,-5.782 c -1.529,-0.546 -3.208,0.247 -3.755,1.774 -0.546,1.529 0.249,3.208 1.775,3.755 L -3.755,1.774 C -2.227,2.323 -0.547,1.529 0,0"
             style="fill:#4d4d4d;fill-opacity:1;fill-rule:nonzero;stroke:none"
             id="path332"
             inkscape:connector-curvature="0" /></g><g
           id="g334"
           transform="translate(586.4336,267.4453)"><path
             d="m 0,0 c 0.547,-1.529 -0.249,-3.208 -1.775,-3.755 l -16.159,-5.779 c -1.527,-0.549 -3.208,0.246 -3.754,1.773 -0.546,1.528 0.249,3.206 1.776,3.753 L -3.756,1.773 C -2.227,2.321 -0.547,1.527 0,0"
             style="fill:#4d4d4d;fill-opacity:1;fill-rule:nonzero;stroke:none"
             id="path336"
             inkscape:connector-curvature="0" /></g><g
           id="g338"
           transform="translate(578.7334,251.166)"><path
             d="m 0,0 c 0.547,-1.527 -0.248,-3.206 -1.773,-3.753 l -16.159,-5.781 c -1.528,-0.548 -3.207,0.247 -3.754,1.772 -0.546,1.529 0.248,3.209 1.775,3.756 L -3.754,1.773 C -2.226,2.322 -0.547,1.527 0,0"
             style="fill:#4d4d4d;fill-opacity:1;fill-rule:nonzero;stroke:none"
             id="path340"
             inkscape:connector-curvature="0" /></g><g
           id="g342"
           transform="translate(571.0361,234.8887)"><path
             d="m 0,0 c 0.547,-1.528 -0.247,-3.208 -1.776,-3.755 l -16.157,-5.778 c -1.528,-0.549 -3.208,0.244 -3.754,1.772 -0.547,1.527 0.248,3.208 1.774,3.752 L -3.755,1.773 C -2.227,2.32 -0.547,1.526 0,0"
             style="fill:#4d4d4d;fill-opacity:1;fill-rule:nonzero;stroke:none"
             id="path344"
             inkscape:connector-curvature="0" /></g><g
           id="g346"
           transform="translate(563.3359,218.6094)"><path
             d="m 0,0 c 0.547,-1.525 -0.246,-3.206 -1.774,-3.752 l -16.158,-5.782 c -1.528,-0.548 -3.208,0.247 -3.755,1.774 -0.544,1.529 0.25,3.207 1.778,3.754 l 16.157,5.78 C -2.224,2.322 -0.545,1.527 0,0"
             style="fill:#4d4d4d;fill-opacity:1;fill-rule:nonzero;stroke:none"
             id="path348"
             inkscape:connector-curvature="0" /></g><g
           id="g350"
           transform="translate(555.6387,202.332)"><path
             d="m 0,0 c 0.546,-1.527 -0.248,-3.206 -1.777,-3.753 l -16.157,-5.78 c -1.526,-0.548 -3.208,0.245 -3.753,1.773 -0.546,1.527 0.247,3.206 1.776,3.753 L -3.754,1.774 C -2.226,2.321 -0.547,1.527 0,0"
             style="fill:#4d4d4d;fill-opacity:1;fill-rule:nonzero;stroke:none"
             id="path352"
             inkscape:connector-curvature="0" /></g><g
           id="g354"
           transform="translate(547.9395,186.0547)"><path
             d="m 0,0 c 0.547,-1.529 -0.248,-3.209 -1.773,-3.756 l -16.159,-5.778 c -1.529,-0.55 -3.208,0.246 -3.755,1.772 -0.546,1.529 0.248,3.208 1.776,3.753 l 16.157,5.78 C -2.226,2.32 -0.547,1.526 0,0"
             style="fill:#4d4d4d;fill-opacity:1;fill-rule:nonzero;stroke:none"
             id="path356"
             inkscape:connector-curvature="0" /></g><g
           id="g358"
           transform="translate(540.2412,169.7744)"><path
             d="m 0,0 c 0.547,-1.524 -0.248,-3.206 -1.775,-3.753 l -16.158,-5.781 c -1.527,-0.546 -3.207,0.247 -3.754,1.776 -0.546,1.528 0.249,3.206 1.776,3.753 L -3.754,1.774 C -2.227,2.323 -0.547,1.529 0,0"
             style="fill:#4d4d4d;fill-opacity:1;fill-rule:nonzero;stroke:none"
             id="path360"
             inkscape:connector-curvature="0" /></g><g
           id="g362"
           transform="translate(532.543,153.498)"><path
             d="m 0,0 c 0.547,-1.528 -0.249,-3.207 -1.775,-3.755 l -16.158,-5.778 c -1.528,-0.55 -3.208,0.246 -3.754,1.773 -0.546,1.529 0.249,3.207 1.774,3.752 L -3.755,1.773 C -2.227,2.322 -0.547,1.526 0,0"
             style="fill:#4d4d4d;fill-opacity:1;fill-rule:nonzero;stroke:none"
             id="path364"
             inkscape:connector-curvature="0" /></g><g
           id="g366"
           transform="translate(524.8437,137.2197)"><path
             d="m 0,0 c 0.547,-1.527 -0.249,-3.207 -1.775,-3.754 l -16.158,-5.78 c -1.528,-0.547 -3.208,0.245 -3.754,1.773 -0.545,1.528 0.249,3.208 1.776,3.755 L -3.755,1.772 C -2.227,2.32 -0.547,1.527 0,0"
             style="fill:#4d4d4d;fill-opacity:1;fill-rule:nonzero;stroke:none"
             id="path368"
             inkscape:connector-curvature="0" /></g><g
           id="g370"
           transform="translate(592.0117,707.4468)"><path
             d="M 0,0 C 0,0 -9.802,-11.202 -28.706,-9.803 -47.607,-8.402 -85.41,-16.802 -99.41,-35.005 L 19.953,-154.368 c 0,0 36.119,40.884 41.162,83.448 l 4.903,4.901 L 0,0 Z"
             style="fill:#f6d2a7;fill-opacity:1;fill-rule:nonzero;stroke:none"
             id="path372"
             inkscape:connector-curvature="0" /></g><g
           id="g374"
           transform="translate(443.2461,660.8877)"><path
             d="m 0,0 -29.405,-29.404 -52.508,52.508 9.977,9.978 c 35.957,35.956 94.258,35.958 130.216,0 L 188.496,-97.134 c 35.955,-35.957 35.958,-94.26 0,-130.217 l -9.976,-9.976 -52.508,52.507 29.404,29.403 c 2.321,2.32 2.317,6.083 0,8.4 L 8.398,0 C 6.076,2.322 2.319,2.319 0,0"
             style="fill:#801a1e;fill-opacity:1;fill-rule:nonzero;stroke:none"
             id="path376"
             inkscape:connector-curvature="0" /></g><g
           id="g378"
           transform="translate(395.123,616.3018)"><path
             d="m 0,0 c 2.382,-2.381 6.254,-2.384 8.639,0.001 l 18.894,18.896 c 2.384,2.383 2.382,6.254 0,8.636 l -49.668,49.669 c -2.387,2.387 -6.254,2.386 -8.639,0.001 L -49.669,58.309 c -2.385,-2.386 -2.387,-6.253 10e-4,-8.64 L 0,0 Z"
             style="fill:#c0272d;fill-opacity:1;fill-rule:nonzero;stroke:none"
             id="path380"
             inkscape:connector-curvature="0" /></g><g
           id="g382"
           transform="translate(602.5303,403.3457)"><path
             d="m 0,0 c 2.537,-2.538 6.65,-2.535 9.188,0 l 20.094,20.099 c 2.538,2.535 2.539,6.648 0.001,9.186 l -52.826,52.827 c -2.538,2.536 -6.651,2.536 -9.186,0 L -52.827,62.016 c -2.537,-2.538 -2.537,-6.651 -0.001,-9.189 L 0,0 Z"
             style="fill:#c0272d;fill-opacity:1;fill-rule:nonzero;stroke:none"
             id="path384"
             inkscape:connector-curvature="0" /></g><g
           id="g386"
           transform="translate(496.1348,546.9463)"><path
             d="m 0,0 c 8.038,-6.486 19.819,-5.226 26.301,2.818 l 23.004,28.51 c 6.486,8.04 5.223,19.818 -2.818,26.305 -8.044,6.485 -19.814,5.224 -26.303,-2.82 L -2.814,26.302 C -9.305,18.264 -8.038,6.485 0,0"
             style="fill:#e8c090;fill-opacity:1;fill-rule:nonzero;stroke:none"
             id="path388"
             inkscape:connector-curvature="0" /></g><g
           id="g390"
           transform="translate(471.1826,630.1108)"><path
             d="m 0,0 c 6.198,-5.873 15.987,-5.61 21.864,0.59 l 38.747,33.213 c 5.878,6.201 -1.028,8.706 -7.228,14.582 l -2.338,2.544 c -6.202,5.873 -7.014,10.35 -12.892,4.151 L -0.59,21.864 C -6.47,15.668 -6.203,5.875 0,0"
             style="fill:#f6d2a7;fill-opacity:1;fill-rule:nonzero;stroke:none"
             id="path392"
             inkscape:connector-curvature="0" /></g><g
           id="g394"
           transform="translate(472.1426,576.7939)"><path
             d="m 0,0 c 8.039,-6.485 19.817,-5.224 26.304,2.813 l 23.003,28.513 c 6.481,8.044 5.221,19.821 -2.818,26.309 -8.046,6.486 -19.818,5.224 -26.306,-2.817 L -2.815,26.306 C -9.302,18.263 -8.043,6.486 0,0"
             style="fill:#e8c090;fill-opacity:1;fill-rule:nonzero;stroke:none"
             id="path396"
             inkscape:connector-curvature="0" /></g><g
           id="g398"
           transform="translate(527.0215,527.833)"><path
             d="m 0,0 c 7.125,-5.747 17.563,-4.63 23.314,2.496 l 20.384,25.271 c 5.748,7.13 4.631,17.566 -2.496,23.316 -7.126,5.748 -17.564,4.633 -23.313,-2.498 L -2.498,23.316 C -8.245,16.187 -7.125,5.747 0,0"
             style="fill:#e8c090;fill-opacity:1;fill-rule:nonzero;stroke:none"
             id="path400"
             inkscape:connector-curvature="0" /></g><g
           id="g402"
           transform="translate(558.7158,514.8018)"><path
             d="m 0,0 c 6.279,-5.064 15.473,-4.081 20.54,2.197 l 17.953,22.262 c 5.064,6.277 4.076,15.473 -2.199,20.536 -6.28,5.068 -15.471,4.078 -20.534,-2.197 L -2.2,20.54 C -7.264,14.26 -6.279,5.064 0,0"
             style="fill:#e8c090;fill-opacity:1;fill-rule:nonzero;stroke:none"
             id="path404"
             inkscape:connector-curvature="0" /></g><g
           id="g406"
           transform="translate(677.0557,642.8667)"><path
             d="M 0,0 -10.233,-10.231 -93.386,72.922 -83.153,83.154 0,0 Z"
             style="fill:#efefef;fill-opacity:1;fill-rule:nonzero;stroke:none"
             id="path408"
             inkscape:connector-curvature="0" /></g><g
           id="g410"
           transform="translate(958.3398,907.6958)"><path
             d="m 0,0 -273.058,-273.057 -99.611,99.613 L -99.613,99.612 0,0 Z"
             style="fill:#801a1e;fill-opacity:1;fill-rule:nonzero;stroke:none"
             id="path412"
             inkscape:connector-curvature="0" /></g><g
           id="g414"
           transform="translate(679.291,656.3115)"><path
             d="M 0,0 C 3.447,-3.446 9.033,-3.447 12.479,-0.003 15.923,3.443 15.921,9.029 12.476,12.476 9.031,15.919 3.448,15.917 0.003,12.473 -3.441,9.027 -3.442,3.444 0,0"
             style="fill:#efefef;fill-opacity:1;fill-rule:nonzero;stroke:none"
             id="path416"
             inkscape:connector-curvature="0" /></g><g
           id="g418"
           transform="translate(482.5215,96.4346)"><path
             d="m 0,0 c 0.498,-4.898 -3.07,-9.268 -7.965,-9.765 l -323.726,-32.881 c -4.898,-0.496 -9.269,3.066 -9.766,7.964 l -5.346,52.629 c -0.497,4.898 3.068,9.268 7.965,9.766 l 323.727,32.879 c 4.894,0.498 9.268,-3.067 9.766,-7.963 L 0,0 Z"
             style="fill:#c0272d;fill-opacity:1;fill-rule:nonzero;stroke:none"
             id="path420"
             inkscape:connector-curvature="0" /></g><g
           id="g422"
           transform="translate(464.4492,181.1748)"><path
             d="m 0,0 -322.722,-32.777 2.458,-24.201 L 2.458,-24.198 0,0 Z"
             style="fill:#801a1e;fill-opacity:1;fill-rule:nonzero;stroke:none"
             id="path424"
             inkscape:connector-curvature="0" /></g><g
           id="g426"
           transform="translate(377.5283,335.1963)"><path
             d="m 0,0 -2.348,23.123 -31.501,-3.199 2.349,-23.123 -59.313,-6.025 -59.31,-6.024 -2.349,23.124 -31.505,-3.2 2.349,-23.123 c 0,0 -5.755,-120.097 -54.173,-168.352 l 161.36,16.389 161.359,16.388 C 29.788,-116.486 0,0 0,0"
             style="fill:#c0272d;fill-opacity:1;fill-rule:nonzero;stroke:none"
             id="path428"
             inkscape:connector-curvature="0" /></g><g
           id="g430"
           transform="translate(349.2207,252.5742)"><path
             d="m 0,0 c -3.999,-2.872 -9.571,-1.961 -12.445,2.037 -2.873,4 -1.959,9.572 2.038,12.444 4,2.874 9.571,1.963 12.445,-2.038 C 4.909,8.444 3.996,2.871 0,0 m -23.919,19.361 c -4.489,2.025 -6.487,7.307 -4.458,11.793 2.027,4.489 7.306,6.484 11.795,4.456 4.487,-2.028 6.483,-7.309 4.458,-11.796 -2.025,-4.485 -7.311,-6.481 -11.795,-4.453 m -6.769,-57.651 c -15.23,-10.944 -36.447,-7.468 -47.39,7.764 -10.943,15.225 -7.464,36.44 7.764,47.383 15.227,10.943 36.444,7.467 47.383,-7.763 10.944,-15.229 7.47,-36.444 -7.757,-47.384 m 3.345,-24.967 c -3.999,-2.875 -9.574,-1.96 -12.443,2.036 -2.876,4.001 -1.958,9.574 2.035,12.445 3.999,2.872 9.573,1.962 12.443,-2.043 2.875,-3.993 1.965,-9.565 -2.035,-12.438 m -29.372,-4.54 c -4.898,-0.489 -9.27,3.09 -9.759,7.984 -0.486,4.903 3.09,9.272 7.981,9.757 4.903,0.49 9.278,-3.088 9.758,-7.987 0.491,-4.895 -3.083,-9.266 -7.98,-9.754 m -15.919,15.207 c -2.019,-4.48 -7.303,-6.479 -11.789,-4.457 -4.489,2.029 -6.485,7.315 -4.458,11.796 2.027,4.493 7.311,6.482 11.792,4.46 4.486,-2.028 6.486,-7.313 4.455,-11.799 m -30.412,18.71 c -2.87,4.002 -1.956,9.575 2.041,12.447 3.999,2.872 9.568,1.957 12.44,-2.038 2.875,-3.998 1.961,-9.574 -2.04,-12.441 -3.994,-2.874 -9.565,-1.964 -12.441,2.032 m -4.538,29.374 c -0.491,4.903 3.09,9.27 7.988,9.76 4.9,0.489 9.27,-3.089 9.754,-7.985 0.49,-4.902 -3.085,-9.275 -7.988,-9.755 -4.895,-0.493 -9.264,3.082 -9.754,7.98 m 10.753,27.709 c 2.028,4.49 7.31,6.483 11.797,4.457 4.488,-2.027 6.482,-7.309 4.453,-11.794 -2.022,-4.488 -7.31,-6.486 -11.792,-4.455 -4.487,2.025 -6.483,7.302 -4.458,11.792 m 23.165,18.621 c 4.002,2.874 9.575,1.956 12.446,-2.039 2.873,-4.001 1.958,-9.57 -2.036,-12.444 -4,-2.872 -9.576,-1.958 -12.441,2.043 -2.878,3.994 -1.966,9.564 2.031,12.44 m 29.373,4.54 c 4.904,0.489 9.269,-3.089 9.759,-7.986 0.492,-4.9 -3.088,-9.269 -7.989,-9.758 -4.895,-0.487 -9.268,3.091 -9.75,7.989 -0.495,4.897 3.082,9.265 7.98,9.755 M 1.866,26.909 c -20.778,28.925 -61.071,35.524 -89.994,14.744 -28.924,-20.78 -35.522,-61.074 -14.745,-89.998 20.781,-28.924 61.075,-35.522 89.997,-14.745 28.923,20.781 35.524,61.076 14.742,89.999"
             style="fill:#c9c9c9;fill-opacity:1;fill-rule:nonzero;stroke:none"
             id="path432"
             inkscape:connector-curvature="0" /></g><g
           id="g434"
           transform="translate(348.9199,255.5293)"><path
             d="m 0,0 c -3.998,-2.872 -9.57,-1.962 -12.444,2.037 -2.874,4.001 -1.96,9.571 2.037,12.443 4.001,2.874 9.572,1.962 12.445,-2.036 C 4.91,8.444 3.997,2.872 0,0 m -23.919,19.359 c -4.489,2.025 -6.486,7.309 -4.457,11.793 2.027,4.492 7.306,6.486 11.795,4.457 4.488,-2.027 6.484,-7.308 4.457,-11.795 -2.025,-4.486 -7.31,-6.481 -11.795,-4.455 m -6.769,-57.65 c -15.23,-10.943 -36.446,-7.468 -47.39,7.764 -10.941,15.225 -7.464,36.442 7.764,47.385 15.228,10.941 36.445,7.465 47.384,-7.764 10.944,-15.229 7.47,-36.444 -7.758,-47.385 m 3.346,-24.966 c -3.999,-2.876 -9.575,-1.96 -12.444,2.036 -2.875,4 -1.957,9.574 2.036,12.444 3.998,2.873 9.572,1.961 12.442,-2.041 2.876,-3.995 1.966,-9.566 -2.034,-12.439 m -29.372,-4.541 c -4.898,-0.489 -9.271,3.089 -9.76,7.985 -0.485,4.903 3.091,9.271 7.982,9.758 4.902,0.489 9.277,-3.089 9.757,-7.99 0.492,-4.893 -3.082,-9.266 -7.979,-9.753 m -15.92,15.208 c -2.019,-4.48 -7.302,-6.479 -11.789,-4.456 -4.488,2.027 -6.484,7.314 -4.457,11.796 2.027,4.491 7.311,6.481 11.791,4.457 4.487,-2.026 6.487,-7.311 4.455,-11.797 m -30.411,18.71 c -2.871,4.003 -1.956,9.576 2.041,12.446 3.999,2.873 9.568,1.958 12.44,-2.037 2.875,-3.998 1.961,-9.576 -2.04,-12.441 -3.995,-2.876 -9.565,-1.964 -12.441,2.032 m -4.539,29.374 c -0.49,4.902 3.091,9.27 7.989,9.759 4.899,0.488 9.268,-3.088 9.754,-7.984 0.49,-4.902 -3.085,-9.275 -7.987,-9.755 -4.896,-0.493 -9.265,3.082 -9.756,7.98 m 10.753,27.712 c 2.029,4.487 7.31,6.479 11.797,4.456 4.488,-2.028 6.481,-7.312 4.454,-11.798 -2.023,-4.486 -7.31,-6.482 -11.793,-4.453 -4.486,2.025 -6.482,7.303 -4.458,11.795 m 23.165,18.618 c 4.003,2.874 9.575,1.956 12.447,-2.037 2.873,-4.003 1.958,-9.572 -2.036,-12.444 -4,-2.875 -9.576,-1.961 -12.441,2.041 -2.879,3.994 -1.966,9.564 2.03,12.44 m 29.373,4.542 c 4.905,0.488 9.27,-3.091 9.76,-7.988 0.492,-4.9 -3.089,-9.269 -7.989,-9.757 -4.895,-0.488 -9.268,3.09 -9.75,7.988 -0.496,4.897 3.081,9.266 7.979,9.757 M 1.867,26.909 c -20.778,28.924 -61.072,35.525 -89.994,14.745 -28.924,-20.782 -35.523,-61.073 -14.746,-89.999 20.782,-28.921 61.076,-35.522 89.998,-14.746 28.922,20.782 35.524,61.077 14.742,90"
             style="fill:#efefef;fill-opacity:1;fill-rule:nonzero;stroke:none"
             id="path436"
             inkscape:connector-curvature="0" /></g><g
           id="g438"
           transform="translate(320.7852,224.7832)"><path
             d="m 0,0 30.209,-17.616 c 2.627,-1.532 3.512,-4.904 1.983,-7.531 -1.533,-2.626 -4.906,-3.514 -7.532,-1.98 -0.502,0.292 -0.956,0.672 -1.327,1.079 L 0,0 Z"
             style="fill:#801a1e;fill-opacity:1;fill-rule:nonzero;stroke:none"
             id="path440"
             inkscape:connector-curvature="0" /></g><g
           id="g442"
           transform="translate(126.8296,318.0488)"><path
             d="m 0,0 c 0,0 -0.05,0.555 -0.144,1.594 -0.042,0.518 -0.094,1.159 -0.154,1.913 -0.029,0.376 -0.06,0.781 -0.093,1.213 -0.006,0.435 -0.013,0.897 -0.02,1.386 -0.012,0.984 -0.026,2.073 -0.041,3.258 0.034,1.18 0.117,2.455 0.184,3.825 0.069,1.371 0.27,2.813 0.414,4.351 0.141,1.539 0.485,3.122 0.741,4.802 0.3,1.669 0.738,3.382 1.137,5.174 0.251,0.881 0.507,1.778 0.767,2.688 0.256,0.913 0.525,1.839 0.858,2.756 0.321,0.924 0.646,1.859 0.976,2.807 0.351,0.939 0.753,1.872 1.136,2.826 0.727,1.928 1.716,3.784 2.615,5.726 1.973,3.796 4.25,7.607 6.884,11.263 2.655,3.639 5.639,7.123 8.843,10.396 3.272,3.204 6.753,6.193 10.394,8.847 3.652,2.64 7.468,4.909 11.26,6.887 3.843,1.884 7.639,3.529 11.36,4.729 0.918,0.333 1.843,0.602 2.757,0.858 0.91,0.26 1.807,0.515 2.689,0.767 1.792,0.399 3.505,0.835 5.174,1.137 1.68,0.255 3.264,0.598 4.803,0.741 1.538,0.143 2.981,0.343 4.351,0.411 1.37,0.066 2.645,0.151 3.826,0.184 1.181,-0.017 2.266,-0.031 3.247,-0.044 0.488,-0.007 0.95,-0.014 1.384,-0.021 0.435,-0.033 0.842,-0.063 1.221,-0.092 0.756,-0.061 1.399,-0.113 1.92,-0.155 1.038,-0.095 1.592,-0.146 1.592,-0.146 0,0 -0.551,-0.079 -1.585,-0.226 C 87.464,89.698 85.951,89.564 84.049,89.214 83.101,89.052 82.05,88.874 80.907,88.679 79.774,88.417 78.548,88.184 77.245,87.911 74.646,87.315 71.75,86.539 68.644,85.574 67.092,85.089 65.5,84.505 63.852,83.938 62.237,83.26 60.528,82.69 58.85,81.901 58.005,81.526 57.149,81.146 56.282,80.76 55.423,80.361 54.574,79.912 53.705,79.484 51.957,78.651 50.254,77.638 48.491,76.684 45.039,74.627 41.587,72.337 38.234,69.803 34.924,67.212 31.692,64.423 28.665,61.416 25.658,58.39 22.865,55.16 20.275,51.851 17.734,48.5 15.451,45.044 13.39,41.595 11.431,38.094 9.605,34.647 8.17,31.235 7.381,29.557 6.814,27.846 6.134,26.232 5.567,24.583 4.985,22.991 4.499,21.439 3.535,18.333 2.757,15.438 2.164,12.838 1.893,11.534 1.658,10.308 1.397,9.175 1.203,8.035 1.025,6.988 0.864,6.043 0.515,4.149 0.38,2.61 0.225,1.584 0.078,0.551 0,0 0,0"
             style="fill:#f1f1f1;fill-opacity:1;fill-rule:nonzero;stroke:none"
             id="path444"
             inkscape:connector-curvature="0" /></g><g
           id="g446"
           transform="translate(86.3315,318.0488)"><path
             d="m 0,0 c 0,0 -0.073,0.804 -0.209,2.31 -0.061,0.753 -0.136,1.681 -0.224,2.773 -0.041,0.546 -0.086,1.133 -0.134,1.759 -0.009,0.631 -0.018,1.301 -0.029,2.01 -0.018,1.424 -0.038,3.003 -0.059,4.721 0.049,1.712 0.169,3.561 0.267,5.546 0.1,1.985 0.39,4.077 0.599,6.306 0.088,1.118 0.285,2.246 0.481,3.403 0.194,1.159 0.391,2.346 0.593,3.558 0.169,1.222 0.512,2.428 0.776,3.682 0.286,1.249 0.577,2.523 0.873,3.818 0.364,1.278 0.734,2.578 1.111,3.897 0.372,1.323 0.762,2.665 1.244,3.995 0.465,1.338 0.938,2.695 1.415,4.068 0.508,1.362 1.092,2.714 1.647,4.097 0.281,0.69 0.565,1.384 0.85,2.081 0.29,0.697 0.638,1.369 0.958,2.059 0.654,1.374 1.316,2.762 1.983,4.161 1.477,2.724 2.908,5.545 4.636,8.235 0.852,1.351 1.632,2.764 2.571,4.081 0.919,1.33 1.843,2.668 2.771,4.009 3.848,5.276 8.175,10.326 12.819,15.071 4.744,4.645 9.79,8.977 15.066,12.825 1.342,0.929 2.679,1.854 4.008,2.775 1.317,0.938 2.731,1.718 4.082,2.57 2.692,1.725 5.509,3.162 8.234,4.638 1.399,0.667 2.787,1.328 4.162,1.983 0.69,0.32 1.364,0.665 2.057,0.96 0.698,0.285 1.392,0.568 2.082,0.85 1.384,0.554 2.736,1.138 4.098,1.646 1.373,0.478 2.73,0.95 4.068,1.416 1.33,0.483 2.672,0.872 3.996,1.244 1.319,0.376 2.619,0.747 3.897,1.111 1.295,0.296 2.569,0.587 3.819,0.873 1.254,0.261 2.459,0.607 3.682,0.776 1.212,0.201 2.399,0.398 3.559,0.591 1.157,0.194 2.284,0.395 3.403,0.482 2.229,0.207 4.321,0.497 6.306,0.596 1.986,0.096 3.835,0.219 5.547,0.266 1.712,-0.023 3.286,-0.044 4.706,-0.063 0.708,-0.011 1.377,-0.02 2.007,-0.03 0.631,-0.034 1.222,-0.093 1.771,-0.134 1.095,-0.089 2.027,-0.164 2.782,-0.225 1.505,-0.138 2.308,-0.211 2.308,-0.211 0,0 -0.799,-0.114 -2.298,-0.327 -0.746,-0.099 -1.667,-0.221 -2.749,-0.365 -1.081,-0.129 -2.318,-0.318 -3.697,-0.565 -1.375,-0.234 -2.897,-0.493 -4.555,-0.776 -1.641,-0.379 -3.42,-0.717 -5.308,-1.113 -3.768,-0.863 -7.966,-1.988 -12.469,-3.387 -2.249,-0.703 -4.555,-1.55 -6.945,-2.372 -1.177,-0.466 -2.374,-0.941 -3.589,-1.422 -1.218,-0.468 -2.448,-0.953 -3.662,-1.53 -1.224,-0.544 -2.465,-1.096 -3.722,-1.654 -1.246,-0.578 -2.477,-1.23 -3.735,-1.849 -2.535,-1.208 -5.002,-2.677 -7.559,-4.061 -5.004,-2.98 -10.007,-6.3 -14.868,-9.974 C 50.625,97.429 45.939,93.386 41.552,89.027 37.192,84.641 33.144,79.959 29.39,75.16 25.707,70.305 22.397,65.294 19.41,60.294 18.029,57.736 16.554,55.271 15.348,52.735 14.729,51.477 14.077,50.245 13.5,48.999 12.94,47.742 12.388,46.502 11.844,45.277 11.268,44.063 10.783,42.832 10.314,41.614 9.833,40.399 9.358,39.202 8.892,38.025 8.07,35.635 7.227,33.327 6.521,31.078 5.124,26.575 3.997,22.377 3.137,18.609 2.743,16.72 2.403,14.941 2.025,13.3 1.744,11.647 1.486,10.131 1.253,8.76 1.007,7.387 0.817,6.145 0.689,5.055 0.546,3.969 0.424,3.045 0.326,2.296 0.113,0.799 0,0 0,0"
             style="fill:#f1f1f1;fill-opacity:1;fill-rule:nonzero;stroke:none"
             id="path448"
             inkscape:connector-curvature="0" /></g><g
           id="g450"
           transform="translate(558.8154,119.0322)"><path
             d="m 0,0 c 0,0 0.05,-0.554 0.145,-1.594 0.042,-0.518 0.092,-1.159 0.154,-1.913 0.028,-0.376 0.059,-0.781 0.092,-1.213 0.006,-0.435 0.013,-0.897 0.02,-1.386 0.013,-0.984 0.026,-2.073 0.041,-3.258 -0.034,-1.18 -0.117,-2.455 -0.184,-3.825 -0.07,-1.371 -0.27,-2.813 -0.414,-4.351 -0.14,-1.539 -0.486,-3.122 -0.741,-4.802 -0.3,-1.669 -0.738,-3.382 -1.137,-5.174 -0.251,-0.881 -0.506,-1.778 -0.766,-2.688 -0.257,-0.913 -0.525,-1.839 -0.858,-2.756 -0.322,-0.924 -0.647,-1.859 -0.977,-2.807 -0.351,-0.939 -0.753,-1.872 -1.136,-2.826 -0.727,-1.928 -1.717,-3.784 -2.615,-5.726 -1.973,-3.796 -4.25,-7.607 -6.883,-11.263 -2.655,-3.64 -5.639,-7.123 -8.844,-10.397 -3.272,-3.204 -6.753,-6.192 -10.393,-8.846 -3.652,-2.64 -7.468,-4.909 -11.261,-6.888 -3.843,-1.884 -7.638,-3.528 -11.359,-4.729 -0.918,-0.332 -1.844,-0.602 -2.757,-0.858 -0.91,-0.26 -1.807,-0.515 -2.689,-0.767 -1.792,-0.399 -3.505,-0.835 -5.174,-1.137 -1.68,-0.255 -3.264,-0.598 -4.803,-0.74 -1.537,-0.144 -2.981,-0.343 -4.351,-0.411 -1.37,-0.067 -2.645,-0.152 -3.826,-0.184 -1.181,0.016 -2.266,0.03 -3.247,0.043 -0.488,0.008 -0.949,0.015 -1.384,0.02 -0.435,0.034 -0.842,0.065 -1.221,0.093 -0.756,0.062 -1.399,0.113 -1.92,0.155 -1.038,0.095 -1.592,0.146 -1.592,0.146 0,0 0.552,0.078 1.585,0.226 1.031,0.157 2.545,0.291 4.447,0.641 0.948,0.161 1.999,0.341 3.142,0.535 1.133,0.262 2.359,0.495 3.663,0.769 2.598,0.595 5.495,1.371 8.6,2.336 1.552,0.485 3.143,1.069 4.792,1.637 1.615,0.677 3.325,1.247 5.002,2.036 0.845,0.376 1.701,0.756 2.568,1.141 0.859,0.399 1.709,0.848 2.577,1.276 1.748,0.833 3.45,1.846 5.214,2.801 3.452,2.056 6.903,4.346 10.257,6.881 3.31,2.59 6.542,5.379 9.568,8.387 3.008,3.025 5.801,6.255 8.391,9.565 2.54,3.351 4.823,6.807 6.884,10.256 1.959,3.501 3.785,6.948 5.22,10.36 0.788,1.678 1.356,3.389 2.036,5.003 0.567,1.649 1.149,3.241 1.636,4.793 0.963,3.106 1.741,6.001 2.334,8.601 0.271,1.304 0.507,2.53 0.767,3.663 0.194,1.14 0.372,2.187 0.533,3.132 0.349,1.894 0.484,3.433 0.639,4.459 C -0.078,-0.551 0,0 0,0"
             style="fill:#f1f1f1;fill-opacity:1;fill-rule:nonzero;stroke:none"
             id="path452"
             inkscape:connector-curvature="0" /></g><g
           id="g454"
           transform="translate(599.3135,119.0322)"><path
             d="m 0,0 c 0,0 0.072,-0.804 0.209,-2.31 0.061,-0.753 0.136,-1.681 0.224,-2.773 0.042,-0.546 0.086,-1.133 0.133,-1.759 0.01,-0.631 0.02,-1.301 0.03,-2.01 0.017,-1.424 0.038,-3.003 0.059,-4.721 -0.049,-1.712 -0.169,-3.561 -0.267,-5.546 -0.1,-1.985 -0.391,-4.077 -0.599,-6.306 -0.088,-1.118 -0.285,-2.246 -0.481,-3.403 -0.194,-1.159 -0.391,-2.346 -0.593,-3.558 -0.169,-1.222 -0.512,-2.428 -0.776,-3.682 -0.286,-1.249 -0.577,-2.523 -0.873,-3.818 -0.364,-1.278 -0.734,-2.578 -1.111,-3.897 -0.372,-1.323 -0.762,-2.665 -1.244,-3.995 -0.465,-1.338 -0.938,-2.695 -1.415,-4.068 -0.508,-1.362 -1.092,-2.714 -1.647,-4.097 -0.281,-0.691 -0.564,-1.384 -0.849,-2.081 -0.29,-0.697 -0.639,-1.369 -0.958,-2.059 -0.655,-1.375 -1.317,-2.763 -1.984,-4.162 -1.476,-2.724 -2.907,-5.544 -4.635,-8.234 -0.852,-1.351 -1.632,-2.764 -2.571,-4.081 -0.92,-1.331 -1.843,-2.668 -2.771,-4.01 -3.849,-5.276 -8.175,-10.326 -12.819,-15.071 -4.744,-4.644 -9.791,-8.976 -15.067,-12.825 -1.342,-0.929 -2.678,-1.853 -4.008,-2.774 -1.316,-0.939 -2.729,-1.719 -4.081,-2.571 -2.691,-1.725 -5.509,-3.162 -8.233,-4.637 -1.401,-0.667 -2.788,-1.328 -4.163,-1.984 -0.69,-0.32 -1.364,-0.665 -2.057,-0.961 -0.698,-0.284 -1.391,-0.567 -2.082,-0.849 -1.384,-0.554 -2.735,-1.138 -4.099,-1.646 -1.373,-0.478 -2.729,-0.95 -4.067,-1.417 -1.33,-0.481 -2.672,-0.871 -3.995,-1.243 -1.32,-0.376 -2.62,-0.747 -3.898,-1.111 -1.295,-0.296 -2.569,-0.587 -3.819,-0.872 -1.254,-0.262 -2.459,-0.609 -3.682,-0.777 -1.212,-0.201 -2.399,-0.398 -3.559,-0.59 -1.157,-0.195 -2.284,-0.396 -3.402,-0.483 -2.23,-0.208 -4.322,-0.497 -6.308,-0.596 -1.985,-0.096 -3.834,-0.218 -5.546,-0.266 -1.713,0.023 -3.286,0.044 -4.707,0.063 -0.707,0.01 -1.376,0.021 -2.007,0.03 -0.63,0.034 -1.22,0.093 -1.769,0.134 -1.096,0.088 -2.028,0.164 -2.784,0.225 -1.504,0.138 -2.307,0.211 -2.307,0.211 0,0 0.8,0.114 2.298,0.327 0.747,0.1 1.667,0.222 2.749,0.365 1.081,0.129 2.317,0.319 3.697,0.565 1.375,0.234 2.897,0.494 4.555,0.776 1.641,0.379 3.42,0.717 5.308,1.113 3.768,0.863 7.966,1.989 12.468,3.387 2.25,0.703 4.556,1.55 6.946,2.372 1.177,0.467 2.373,0.941 3.589,1.422 1.217,0.468 2.447,0.953 3.662,1.53 1.224,0.544 2.465,1.096 3.722,1.655 1.245,0.577 2.477,1.229 3.735,1.848 2.535,1.208 5.002,2.678 7.559,4.061 5.004,2.98 10.007,6.301 14.868,9.974 4.798,3.755 9.484,7.798 13.87,12.158 4.361,4.385 8.408,9.067 12.162,13.866 3.683,4.856 6.993,9.867 9.981,14.867 1.38,2.558 2.855,5.023 4.061,7.559 0.619,1.258 1.271,2.49 1.849,3.736 0.559,1.257 1.111,2.497 1.655,3.722 0.576,1.214 1.062,2.445 1.53,3.663 0.481,1.215 0.956,2.411 1.422,3.588 0.823,2.391 1.665,4.699 2.371,6.947 1.397,4.504 2.525,8.701 3.384,12.47 0.394,1.889 0.735,3.668 1.112,5.309 0.281,1.653 0.539,3.169 0.772,4.54 0.245,1.373 0.436,2.615 0.565,3.705 0.142,1.086 0.264,2.01 0.363,2.759 C -0.113,-0.799 0,0 0,0"
             style="fill:#f1f1f1;fill-opacity:1;fill-rule:nonzero;stroke:none"
             id="path456"
             inkscape:connector-curvature="0" /></g><g
           id="g458"
           transform="translate(332.4053,634.9424)"><path
             d="m 0,0 c -10.599,-6.745 -21.771,-5.438 -29.059,-3.288 l 0,36.92 c 0,2.378 -1.927,4.306 -4.305,4.306 l -86.636,0 c -2.377,0 -4.305,-1.928 -4.305,-4.306 l 0,-59.999 c 0,-2.377 1.928,-4.305 4.305,-4.305 l 86.636,0 c 2.378,0 4.305,1.928 4.305,4.305 l 0,3.522 C -4.657,-19.285 0,0 0,0"
             style="fill:#002c3d;fill-opacity:1;fill-rule:nonzero;stroke:none"
             id="path460"
             inkscape:connector-curvature="0" /></g><g
           id="g462"
           transform="translate(235.3618,638.5747)"><path
             d="m 0,0 c 0,-2.812 -2.279,-5.091 -5.092,-5.091 -2.811,0 -5.091,2.279 -5.091,5.091 0,2.812 2.28,5.091 5.091,5.091 C -2.279,5.091 0,2.812 0,0"
             style="fill:#f1f1f1;fill-opacity:1;fill-rule:nonzero;stroke:none"
             id="path464"
             inkscape:connector-curvature="0" /></g><g
           id="g466"
           transform="translate(259.4307,638.5747)"><path
             d="m 0,0 c 0,-2.812 -2.28,-5.091 -5.092,-5.091 -2.812,0 -5.091,2.279 -5.091,5.091 0,2.812 2.279,5.091 5.091,5.091 C -2.28,5.091 0,2.812 0,0"
             style="fill:#f1f1f1;fill-opacity:1;fill-rule:nonzero;stroke:none"
             id="path468"
             inkscape:connector-curvature="0" /></g><g
           id="g470"
           transform="translate(283.499,638.5747)"><path
             d="m 0,0 c 0,-2.812 -2.279,-5.091 -5.091,-5.091 -2.812,0 -5.092,2.279 -5.092,5.091 0,2.812 2.28,5.091 5.092,5.091 C -2.279,5.091 0,2.812 0,0"
             style="fill:#f1f1f1;fill-opacity:1;fill-rule:nonzero;stroke:none"
             id="path472"
             inkscape:connector-curvature="0" /></g></g></g><text
       transform="matrix(1,0,0,-1,280.8018,425.4629)"
       style="font-variant:normal;font-weight:300;font-stretch:normal;font-size:43.21110153px;font-family:'Existence Light';-inkscape-font-specification:Existence-Light;writing-mode:lr-tb;fill:#000000;fill-opacity:1;fill-rule:nonzero;stroke:none"
       id="text474"><tspan
         x="0"
         sodipodi:role="line"
         id="tspan476"
         y="0">Medico cerca!</tspan></text>
</g></svg>